999
dxfrw 0.6.3
  0
SECTION
  2
HEADER
  9
$ACADVER
  1
AC1021
  9
$DWGCODEPAGE
  3
ANSI_1252
  9
$INSBASE
 10
0
 20
0
 30
0
  9
$EXTMIN
 10
-2.273736754432321e-013
 20
-640
 30
0
  9
$EXTMAX
 10
2679.738040009259
 20
1245.718790238866
 30
0
  9
$LIMMIN
 10
0
 20
0
  9
$LIMMAX
 10
420
 20
297
  9
$ORTHOMODE
 70
    0
  9
$REGENMODE
 70
    1
  9
$FILLMODE
 70
    1
  9
$QTEXTMODE
 70
    0
  9
$MIRRTEXT
 70
    0
  9
$LTSCALE
 40
1
  9
$ATTMODE
 70
    0
  9
$TEXTSIZE
 40
2.5
  9
$TRACEWID
 40
15.68
  9
$TEXTSTYLE
  7
STANDARD
  9
$CLAYER
  8
0
  9
$CELTYPE
  6
BYLAYER
  9
$CECOLOR
 62
  256
  9
$CELTSCALE
 40
1
  9
$DISPSILH
 70
    0
  9
$DIMSCALE
 40
2.5
  9
$DIMASZ
 40
2.5
  9
$DIMEXO
 40
0.625
  9
$DIMDLI
 40
3.75
  9
$DIMRND
 40
0
  9
$DIMDLE
 40
0
  9
$DIMEXE
 40
1.25
  9
$DIMTP
 40
0
  9
$DIMTM
 40
0
  9
$DIMTXT
 40
2.5
  9
$DIMCEN
 40
2.5
  9
$DIMTSZ
 40
0
  9
$DIMTOL
 70
    0
  9
$DIMLIM
 70
    0
  9
$DIMTIH
 70
    0
  9
$DIMTOH
 70
    0
  9
$DIMSE1
 70
    0
  9
$DIMSE2
 70
    0
  9
$DIMTAD
 70
    1
  9
$DIMZIN
 70
    8
  9
$DIMBLK
  1

  9
$DIMASO
 70
    1
  9
$DIMSHO
 70
    1
  9
$DIMPOST
  1

  9
$DIMAPOST
  1

  9
$DIMALT
 70
    0
  9
$DIMALTD
 70
    3
  9
$DIMALTF
 40
0.03937
  9
$DIMLFAC
 40
1
  9
$DIMTOFL
 70
    1
  9
$DIMTVP
 40
0
  9
$DIMTIX
 70
    0
  9
$DIMSOXD
 70
    0
  9
$DIMSAH
 70
    0
  9
$DIMBLK1
  1

  9
$DIMBLK2
  1

  9
$DIMSTYLE
  2
STANDARD
  9
$DIMCLRD
 70
    0
  9
$DIMCLRE
 70
    0
  9
$DIMCLRT
 70
    0
  9
$DIMTFAC
 40
1
  9
$DIMGAP
 40
0.625
  9
$DIMJUST
 70
    0
  9
$DIMSD1
 70
    0
  9
$DIMSD2
 70
    0
  9
$DIMTOLJ
 70
    0
  9
$DIMTZIN
 70
    8
  9
$DIMALTZ
 70
    0
  9
$DIMALTTZ
 70
    0
  9
$DIMUPT
 70
    0
  9
$DIMDEC
 70
    2
  9
$DIMTDEC
 70
    2
  9
$DIMALTU
 70
    2
  9
$DIMALTTD
 70
    3
  9
$DIMTXSTY
  7
STANDARD
  9
$DIMAUNIT
 70
    0
  9
$DIMADEC
 70
    0
  9
$DIMALTRND
 40
0
  9
$DIMAZIN
 70
    0
  9
$DIMDSEP
 70
   44
  9
$DIMATFIT
 70
    3
  9
$DIMFRAC
 70
    0
  9
$DIMLDRBLK
  1
STANDARD
  9
$DIMLUNIT
 70
    2
  9
$DIMLWD
 70
   -2
  9
$DIMLWE
 70
   -2
  9
$DIMTMOVE
 70
    0
  9
$DIMFXL
 40
1
  9
$DIMFXLON
 70
    0
  9
$DIMJOGANG
 40
0.7854
  9
$DIMTFILL
 70
    0
  9
$DIMTFILLCLR
 70
    0
  9
$DIMARCSYM
 70
    0
  9
$DIMLTYPE
  6

  9
$DIMLTEX1
  6

  9
$DIMLTEX2
  6

  9
$LUNITS
 70
    2
  9
$LUPREC
 70
    4
  9
$SKETCHINC
 40
1
  9
$FILLETRAD
 40
0
  9
$AUNITS
 70
    0
  9
$AUPREC
 70
    2
  9
$MENU
  1
.
  9
$ELEVATION
 40
0
  9
$PELEVATION
 40
0
  9
$THICKNESS
 40
0
  9
$LIMCHECK
 70
    0
  9
$CHAMFERA
 40
0
  9
$CHAMFERB
 40
0
  9
$CHAMFERC
 40
0
  9
$CHAMFERD
 40
0
  9
$SKPOLY
 70
    0
  9
$USRTIMER
 70
    1
  9
$ANGBASE
 50
0
  9
$ANGDIR
 70
    0
  9
$PDMODE
 70
   34
  9
$PDSIZE
 40
0
  9
$PLINEWID
 40
0
  9
$SPLFRAME
 70
    0
  9
$SPLINETYPE
 70
    2
  9
$SPLINESEGS
 70
    8
  9
$HANDSEED
  5
20000
  9
$SURFTAB1
 70
    6
  9
$SURFTAB2
 70
    6
  9
$SURFTYPE
 70
    6
  9
$SURFU
 70
    6
  9
$SURFV
 70
    6
  9
$UCSBASE
  2

  9
$UCSNAME
  2

  9
$UCSORG
 10
0
 20
0
 30
0
  9
$UCSXDIR
 10
1
 20
0
 30
0
  9
$UCSYDIR
 10
0
 20
1
 30
0
  9
$UCSORTHOREF
  2

  9
$UCSORTHOVIEW
 70
    0
  9
$UCSORGTOP
 10
0
 20
0
 30
0
  9
$UCSORGBOTTOM
 10
0
 20
0
 30
0
  9
$UCSORGLEFT
 10
0
 20
0
 30
0
  9
$UCSORGRIGHT
 10
0
 20
0
 30
0
  9
$UCSORGFRONT
 10
0
 20
0
 30
0
  9
$UCSORGBACK
 10
0
 20
0
 30
0
  9
$PUCSBASE
  2

  9
$PUCSNAME
  2

  9
$PUCSORG
 10
0
 20
0
 30
0
  9
$PUCSXDIR
 10
1
 20
0
 30
0
  9
$PUCSYDIR
 10
0
 20
1
 30
0
  9
$PUCSORTHOREF
  2

  9
$PUCSORTHOVIEW
 70
    0
  9
$PUCSORGTOP
 10
0
 20
0
 30
0
  9
$PUCSORGBOTTOM
 10
0
 20
0
 30
0
  9
$PUCSORGLEFT
 10
0
 20
0
 30
0
  9
$PUCSORGRIGHT
 10
0
 20
0
 30
0
  9
$PUCSORGFRONT
 10
0
 20
0
 30
0
  9
$PUCSORGBACK
 10
0
 20
0
 30
0
  9
$USERI1
 70
    0
  9
$USERI2
 70
    0
  9
$USERI3
 70
    0
  9
$USERI4
 70
    0
  9
$USERI5
 70
    0
  9
$USERR1
 40
0
  9
$USERR2
 40
0
  9
$USERR3
 40
0
  9
$USERR4
 40
0
  9
$USERR5
 40
0
  9
$WORLDVIEW
 70
    1
  9
$SHADEDGE
 70
    3
  9
$SHADEDIF
 70
   70
  9
$TILEMODE
 70
    1
  9
$MAXACTVP
 70
   64
  9
$PINSBASE
 10
0
 20
0
 30
0
  9
$PLIMCHECK
 70
    0
  9
$PEXTMIN
 10
0
 20
0
 30
0
  9
$PEXTMAX
 10
0
 20
0
 30
0
  9
$GRIDMODE
 70
    1
  9
$SNAPSTYLE
 70
    0
  9
$PLIMMIN
 10
0
 20
0
  9
$PLIMMAX
 10
210
 20
297
  9
$UNITMODE
 70
    0
  9
$VISRETAIN
 70
    1
  9
$PLINEGEN
 70
    0
  9
$PSLTSCALE
 70
    1
  9
$TREEDEPTH
 70
 3020
  9
$CMLSTYLE
  2
Standard
  9
$CMLJUST
 70
    0
  9
$CMLSCALE
 40
20
  9
$PROXYGRAPHICS
 70
    1
  9
$MEASUREMENT
 70
    1
  9
$CELWEIGHT
370
   -1
  9
$ENDCAPS
280
    0
  9
$JOINSTYLE
280
    0
  9
$LWDISPLAY
290
    0
  9
$INSUNITS
 70
    4
  9
$HYPERLINKBASE
  1

  9
$STYLESHEET
  1

  9
$XEDIT
290
    1
  9
$CEPSNTYPE
380
    0
  9
$PSTYLEMODE
290
    1
  9
$EXTNAMES
290
    1
  9
$PSVPSCALE
 40
1
  9
$OLESTARTUP
290
    0
  9
$SORTENTS
280
  127
  9
$INDEXCTL
280
    0
  9
$HIDETEXT
280
    1
  9
$XCLIPFRAME
290
    0
  9
$HALOGAP
280
    0
  9
$OBSCOLOR
 70
  257
  9
$OBSLTYPE
280
    0
  9
$INTERSECTIONDISPLAY
280
    0
  9
$INTERSECTIONCOLOR
 70
  257
  9
$DIMASSOC
280
    1
  9
$PROJECTNAME
  1

  9
$CAMERADISPLAY
290
    0
  9
$LENSLENGTH
 40
50
  9
$CAMERAHEIGHT
 40
0
  9
$STEPSPERSEC
 40
2
  9
$STEPSIZE
 40
50
  9
$3DDWFPREC
 40
2
  9
$PSOLWIDTH
 40
5
  9
$PSOLHEIGHT
 40
80
  9
$LOFTANG1
 40
1.570796326794897
  9
$LOFTANG2
 40
1.570796326794897
  9
$LOFTMAG1
 40
0
  9
$LOFTMAG2
 40
0
  9
$LOFTPARAM
 70
    7
  9
$LOFTNORMALS
280
    1
  9
$LATITUDE
 40
1
  9
$LONGITUDE
 40
1
  9
$NORTHDIRECTION
 40
0
  9
$TIMEZONE
 70
-8000
  9
$LIGHTGLYPHDISPLAY
280
    1
  9
$TILEMODELIGHTSYNCH
280
    1
  9
$SOLIDHIST
280
    1
  9
$SHOWHIST
280
    1
  9
$DWFFRAME
280
    2
  9
$DGNFRAME
280
    0
  9
$REALWORLDSCALE
290
    1
  9
$INTERFERECOLOR
 62
    1
  9
$CSHADOW
280
    0
  9
$SHADOWPLANELOCATION
 40
0
  0
ENDSEC
  0
SECTION
  2
CLASSES
  0
ENDSEC
  0
SECTION
  2
TABLES
  0
TABLE
  2
VPORT
  5
8
330
0
100
AcDbSymbolTable
 70
    1
  0
VPORT
  5
31
330
2
100
AcDbSymbolTableRecord
100
AcDbViewportTableRecord
  2
*ACTIVE
 70
    0
 10
0
 20
0
 11
1
 21
1
 12
2230.198978805199
 22
936.1569827953613
 13
0
 23
0
 14
10
 24
10
 15
10
 25
10
 16
0
 26
0
 36
1
 17
0
 27
0
 37
0
 40
3561.297188717353
 41
1.865826944140197
 42
50
 43
0
 44
0
 50
0
 51
0
 71
    0
 72
  100
 73
    1
 74
    3
 75
    0
 76
    1
 77
    0
 78
    0
281
    0
 65
    1
110
0
120
0
130
0
111
1
121
0
131
0
112
0
122
1
132
0
 79
    0
146
0
348
10020
 60
    7
 61
    5
292
1
282
    1
141
0
142
0
 63
  250
421
3358443
  0
ENDTAB
  0
TABLE
  2
LTYPE
  5
5
330
0
100
AcDbSymbolTable
 70
    4
  0
LTYPE
  5
14
330
5
100
AcDbSymbolTableRecord
100
AcDbLinetypeTableRecord
  2
ByBlock
 70
    0
  3

 72
   65
 73
    0
 40
0
  0
LTYPE
  5
15
330
5
100
AcDbSymbolTableRecord
100
AcDbLinetypeTableRecord
  2
ByLayer
 70
    0
  3

 72
   65
 73
    0
 40
0
  0
LTYPE
  5
16
330
5
100
AcDbSymbolTableRecord
100
AcDbLinetypeTableRecord
  2
Continuous
 70
    0
  3
Solid line
 72
   65
 73
    0
 40
0
  0
LTYPE
  5
32
330
5
100
AcDbSymbolTableRecord
100
AcDbLinetypeTableRecord
  2
DOT
 70
    0
  3
Dot . . . . . . . . . . . . . . . . . . . . . .
 72
   65
 73
    2
 40
6.35
 49
0
 74
    0
 49
-6.35
 74
    0
  0
LTYPE
  5
33
330
5
100
AcDbSymbolTableRecord
100
AcDbLinetypeTableRecord
  2
DOTTINY
 70
    0
  3
Dot (.15x) .....................................
 72
   65
 73
    2
 40
0.9525
 49
0
 74
    0
 49
-0.9525
 74
    0
  0
LTYPE
  5
34
330
5
100
AcDbSymbolTableRecord
100
AcDbLinetypeTableRecord
  2
DOT2
 70
    0
  3
Dot (.5x) .....................................
 72
   65
 73
    2
 40
3.175
 49
0
 74
    0
 49
-3.175
 74
    0
  0
LTYPE
  5
35
330
5
100
AcDbSymbolTableRecord
100
AcDbLinetypeTableRecord
  2
DOTX2
 70
    0
  3
Dot (2x) .  .  .  .  .  .  .  .  .  .  .  .  .
 72
   65
 73
    2
 40
12.7
 49
0
 74
    0
 49
-12.7
 74
    0
  0
LTYPE
  5
36
330
5
100
AcDbSymbolTableRecord
100
AcDbLinetypeTableRecord
  2
DASHED
 70
    0
  3
Dashed _ _ _ _ _ _ _ _ _ _ _ _ _ _ _ _ _
 72
   65
 73
    2
 40
19.05
 49
12.7
 74
    0
 49
-6.35
 74
    0
  0
LTYPE
  5
37
330
5
100
AcDbSymbolTableRecord
100
AcDbLinetypeTableRecord
  2
DASHEDTINY
 70
    0
  3
Dashed (.15x) _ _ _ _ _ _ _ _ _ _ _ _ _ _ _ _ _
 72
   65
 73
    2
 40
2.8575
 49
1.905
 74
    0
 49
-0.9525
 74
    0
  0
LTYPE
  5
38
330
5
100
AcDbSymbolTableRecord
100
AcDbLinetypeTableRecord
  2
DASHED2
 70
    0
  3
Dashed (.5x) _ _ _ _ _ _ _ _ _ _ _ _ _ _ _ _ _
 72
   65
 73
    2
 40
9.524999999999999
 49
6.35
 74
    0
 49
-3.175
 74
    0
  0
LTYPE
  5
39
330
5
100
AcDbSymbolTableRecord
100
AcDbLinetypeTableRecord
  2
DASHEDX2
 70
    0
  3
Dashed (2x) ____  ____  ____  ____  ____  ___
 72
   65
 73
    2
 40
38.09999999999999
 49
25.4
 74
    0
 49
-12.7
 74
    0
  0
LTYPE
  5
3A
330
5
100
AcDbSymbolTableRecord
100
AcDbLinetypeTableRecord
  2
DASHDOT
 70
    0
  3
Dash dot __ . __ . __ . __ . __ . __ . __ . __
 72
   65
 73
    4
 40
25.4
 49
12.7
 74
    0
 49
-6.35
 74
    0
 49
0
 74
    0
 49
-6.35
 74
    0
  0
LTYPE
  5
3B
330
5
100
AcDbSymbolTableRecord
100
AcDbLinetypeTableRecord
  2
DASHDOTTINY
 70
    0
  3
Dash dot (.15x) _._._._._._._._._._._._._._._.
 72
   65
 73
    4
 40
3.81
 49
1.905
 74
    0
 49
-0.9525
 74
    0
 49
0
 74
    0
 49
-0.9525
 74
    0
  0
LTYPE
  5
3C
330
5
100
AcDbSymbolTableRecord
100
AcDbLinetypeTableRecord
  2
DASHDOT2
 70
    0
  3
Dash dot (.5x) _._._._._._._._._._._._._._._.
 72
   65
 73
    4
 40
12.7
 49
6.35
 74
    0
 49
-3.175
 74
    0
 49
0
 74
    0
 49
-3.175
 74
    0
  0
LTYPE
  5
3D
330
5
100
AcDbSymbolTableRecord
100
AcDbLinetypeTableRecord
  2
DASHDOTX2
 70
    0
  3
Dash dot (2x) ____  .  ____  .  ____  .  ___
 72
   65
 73
    4
 40
50.8
 49
25.4
 74
    0
 49
-12.7
 74
    0
 49
0
 74
    0
 49
-12.7
 74
    0
  0
LTYPE
  5
3E
330
5
100
AcDbSymbolTableRecord
100
AcDbLinetypeTableRecord
  2
DIVIDE
 70
    0
  3
Divide ____ . . ____ . . ____ . . ____ . . ____
 72
   65
 73
    6
 40
31.75
 49
12.7
 74
    0
 49
-6.35
 74
    0
 49
0
 74
    0
 49
-6.35
 74
    0
 49
0
 74
    0
 49
-6.35
 74
    0
  0
LTYPE
  5
3F
330
5
100
AcDbSymbolTableRecord
100
AcDbLinetypeTableRecord
  2
DIVIDETINY
 70
    0
  3
Divide (.15x) __..__..__..__..__..__..__..__.._
 72
   65
 73
    6
 40
4.7625
 49
1.905
 74
    0
 49
-0.9525
 74
    0
 49
0
 74
    0
 49
-0.9525
 74
    0
 49
0
 74
    0
 49
-0.9525
 74
    0
  0
LTYPE
  5
40
330
5
100
AcDbSymbolTableRecord
100
AcDbLinetypeTableRecord
  2
DIVIDE2
 70
    0
  3
Divide (.5x) __..__..__..__..__..__..__..__.._
 72
   65
 73
    6
 40
15.875
 49
6.35
 74
    0
 49
-3.175
 74
    0
 49
0
 74
    0
 49
-3.175
 74
    0
 49
0
 74
    0
 49
-3.175
 74
    0
  0
LTYPE
  5
41
330
5
100
AcDbSymbolTableRecord
100
AcDbLinetypeTableRecord
  2
DIVIDEX2
 70
    0
  3
Divide (2x) ________  .  .  ________  .  .  _
 72
   65
 73
    6
 40
63.5
 49
25.4
 74
    0
 49
-12.7
 74
    0
 49
0
 74
    0
 49
-12.7
 74
    0
 49
0
 74
    0
 49
-12.7
 74
    0
  0
LTYPE
  5
42
330
5
100
AcDbSymbolTableRecord
100
AcDbLinetypeTableRecord
  2
BORDER
 70
    0
  3
Border __ __ . __ __ . __ __ . __ __ . __ __ .
 72
   65
 73
    6
 40
44.45
 49
12.7
 74
    0
 49
-6.35
 74
    0
 49
12.7
 74
    0
 49
-6.35
 74
    0
 49
0
 74
    0
 49
-6.35
 74
    0
  0
LTYPE
  5
43
330
5
100
AcDbSymbolTableRecord
100
AcDbLinetypeTableRecord
  2
BORDERTINY
 70
    0
  3
Border (.15x) __.__.__.__.__.__.__.__.__.__.__.
 72
   65
 73
    6
 40
6.6675
 49
1.905
 74
    0
 49
-0.9525
 74
    0
 49
1.905
 74
    0
 49
-0.9525
 74
    0
 49
0
 74
    0
 49
-0.9525
 74
    0
  0
LTYPE
  5
44
330
5
100
AcDbSymbolTableRecord
100
AcDbLinetypeTableRecord
  2
BORDER2
 70
    0
  3
Border (.5x) __.__.__.__.__.__.__.__.__.__.__.
 72
   65
 73
    6
 40
22.225
 49
6.35
 74
    0
 49
-3.175
 74
    0
 49
6.35
 74
    0
 49
-3.175
 74
    0
 49
0
 74
    0
 49
-3.175
 74
    0
  0
LTYPE
  5
45
330
5
100
AcDbSymbolTableRecord
100
AcDbLinetypeTableRecord
  2
BORDERX2
 70
    0
  3
Border (2x) ____  ____  .  ____  ____  .  ___
 72
   65
 73
    6
 40
88.89999999999999
 49
25.4
 74
    0
 49
-12.7
 74
    0
 49
25.4
 74
    0
 49
-12.7
 74
    0
 49
0
 74
    0
 49
-12.7
 74
    0
  0
LTYPE
  5
46
330
5
100
AcDbSymbolTableRecord
100
AcDbLinetypeTableRecord
  2
CENTER
 70
    0
  3
Center ____ _ ____ _ ____ _ ____ _ ____ _ ____
 72
   65
 73
    4
 40
50.8
 49
31.75
 74
    0
 49
-6.35
 74
    0
 49
6.35
 74
    0
 49
-6.35
 74
    0
  0
LTYPE
  5
47
330
5
100
AcDbSymbolTableRecord
100
AcDbLinetypeTableRecord
  2
CENTERTINY
 70
    0
  3
Center (.15x) ___ _ ___ _ ___ _ ___ _ ___ _ ___
 72
   65
 73
    4
 40
7.62
 49
4.7625
 74
    0
 49
-0.9525
 74
    0
 49
0.9525
 74
    0
 49
-0.9525
 74
    0
  0
LTYPE
  5
48
330
5
100
AcDbSymbolTableRecord
100
AcDbLinetypeTableRecord
  2
CENTER2
 70
    0
  3
Center (.5x) ___ _ ___ _ ___ _ ___ _ ___ _ ___
 72
   65
 73
    4
 40
28.575
 49
19.05
 74
    0
 49
-3.175
 74
    0
 49
3.175
 74
    0
 49
-3.175
 74
    0
  0
LTYPE
  5
49
330
5
100
AcDbSymbolTableRecord
100
AcDbLinetypeTableRecord
  2
CENTERX2
 70
    0
  3
Center (2x) ________  __  ________  __  _____
 72
   65
 73
    4
 40
101.6
 49
63.5
 74
    0
 49
-12.7
 74
    0
 49
12.7
 74
    0
 49
-12.7
 74
    0
  0
ENDTAB
  0
TABLE
  2
LAYER
  5
2
330
0
100
AcDbSymbolTable
 70
    1
  0
LAYER
  5
10
330
2
100
AcDbSymbolTableRecord
100
AcDbLayerTableRecord
  2
0
 70
    0
 62
    7
  6
CONTINUOUS
370
    0
390
F
  0
ENDTAB
  0
TABLE
  2
STYLE
  5
3
330
0
100
AcDbSymbolTable
 70
    3
  0
STYLE
  5
4A
330
2
100
AcDbSymbolTableRecord
100
AcDbTextStyleTableRecord
  2
Standard
 70
    0
 40
0
 41
1
 50
0
 71
    0
 42
1
  3
txt
  4

  0
ENDTAB
  0
TABLE
  2
VIEW
  5
6
330
0
100
AcDbSymbolTable
 70
    0
  0
ENDTAB
  0
TABLE
  2
UCS
  5
7
330
0
100
AcDbSymbolTable
 70
    0
  0
ENDTAB
  0
TABLE
  2
APPID
  5
9
330
0
100
AcDbSymbolTable
 70
    1
  0
APPID
  5
12
330
9
100
AcDbSymbolTableRecord
100
AcDbRegAppTableRecord
  2
ACAD
 70
    0
  0
APPID
  5
4B
330
9
100
AcDbSymbolTableRecord
100
AcDbRegAppTableRecord
  2
LibreCad
 70
    0
  0
ENDTAB
  0
TABLE
  2
DIMSTYLE
  5
A
330
0
100
AcDbSymbolTable
 70
    1
100
AcDbDimStyleTable
 71
    1
  0
DIMSTYLE
105
4C
330
A
100
AcDbSymbolTableRecord
100
AcDbDimStyleTableRecord
  2
Standard
 70
    0
 40
2.5
 41
2.5
 42
0.625
 43
0.38
 44
1.25
 45
0
 46
0
 47
0
 48
0
 49
1
140
2.5
141
0.09
142
0
143
25.4
144
1
145
0
146
1
147
0.625
148
0
 71
    0
 72
    0
 73
    0
 74
    1
 75
    0
 76
    0
 77
    0
 78
    8
 79
    0
170
    0
171
    2
172
    0
173
    0
174
    0
175
    0
176
    0
177
    0
178
    0
179
    0
271
    2
272
    4
273
    2
274
    2
275
    0
276
    0
277
    2
278
   44
279
    0
280
    0
281
    0
282
    0
283
    1
284
    0
285
    0
286
    0
288
    0
289
    3
340
STANDARD
341

371
   -2
372
   -2
  0
ENDTAB
  0
TABLE
  2
BLOCK_RECORD
  5
1
330
0
100
AcDbSymbolTable
 70
    2
  0
BLOCK_RECORD
  5
1F
330
1
100
AcDbSymbolTableRecord
100
AcDbBlockTableRecord
  2
*Model_Space
 70
    0
280
    1
281
    0
  0
BLOCK_RECORD
  5
1E
330
1
100
AcDbSymbolTableRecord
100
AcDbBlockTableRecord
  2
*Paper_Space
 70
    0
280
    1
281
    0
  0
BLOCK_RECORD
  5
4D
330
1
100
AcDbSymbolTableRecord
100
AcDbBlockTableRecord
  2
safetyGogglesLensR2
 70
    0
280
    1
281
    0
  0
BLOCK_RECORD
  5
50
330
1
100
AcDbSymbolTableRecord
100
AcDbBlockTableRecord
  2
safetyGogglesLensR2-0
 70
    0
280
    1
281
    0
  0
BLOCK_RECORD
  5
53
330
1
100
AcDbSymbolTableRecord
100
AcDbBlockTableRecord
  2
safetyGogglesLensR2-1
 70
    0
280
    1
281
    0
  0
BLOCK_RECORD
  5
56
330
1
100
AcDbSymbolTableRecord
100
AcDbBlockTableRecord
  2
safetyGogglesLensR2-2
 70
    0
280
    1
281
    0
  0
BLOCK_RECORD
  5
59
330
1
100
AcDbSymbolTableRecord
100
AcDbBlockTableRecord
  2
safetyGogglesLensR2-3
 70
    0
280
    1
281
    0
  0
BLOCK_RECORD
  5
5C
330
1
100
AcDbSymbolTableRecord
100
AcDbBlockTableRecord
  2
safetyGogglesLensR2-4
 70
    0
280
    1
281
    0
  0
BLOCK_RECORD
  5
5F
330
1
100
AcDbSymbolTableRecord
100
AcDbBlockTableRecord
  2
safetyGogglesLensR2-5
 70
    0
280
    1
281
    0
  0
BLOCK_RECORD
  5
62
330
1
100
AcDbSymbolTableRecord
100
AcDbBlockTableRecord
  2
safetyGogglesLensR2-6
 70
    0
280
    1
281
    0
  0
BLOCK_RECORD
  5
65
330
1
100
AcDbSymbolTableRecord
100
AcDbBlockTableRecord
  2
safetyGogglesLensR2-7
 70
    0
280
    1
281
    0
  0
BLOCK_RECORD
  5
68
330
1
100
AcDbSymbolTableRecord
100
AcDbBlockTableRecord
  2
safetyGogglesLensR2-8
 70
    0
280
    1
281
    0
  0
BLOCK_RECORD
  5
6B
330
1
100
AcDbSymbolTableRecord
100
AcDbBlockTableRecord
  2
safetyGogglesLensR2-9
 70
    0
280
    1
281
    0
  0
BLOCK_RECORD
  5
6E
330
1
100
AcDbSymbolTableRecord
100
AcDbBlockTableRecord
  2
safetyGogglesLensR2-10
 70
    0
280
    1
281
    0
  0
BLOCK_RECORD
  5
71
330
1
100
AcDbSymbolTableRecord
100
AcDbBlockTableRecord
  2
safetyGogglesLensR2-11
 70
    0
280
    1
281
    0
  0
BLOCK_RECORD
  5
74
330
1
100
AcDbSymbolTableRecord
100
AcDbBlockTableRecord
  2
safetyGogglesLensR2-12
 70
    0
280
    1
281
    0
  0
BLOCK_RECORD
  5
77
330
1
100
AcDbSymbolTableRecord
100
AcDbBlockTableRecord
  2
safetyGogglesLensR2-13
 70
    0
280
    1
281
    0
  0
BLOCK_RECORD
  5
7A
330
1
100
AcDbSymbolTableRecord
100
AcDbBlockTableRecord
  2
safetyGogglesLensR2-14
 70
    0
280
    1
281
    0
  0
BLOCK_RECORD
  5
7D
330
1
100
AcDbSymbolTableRecord
100
AcDbBlockTableRecord
  2
safetyGogglesLensR2-15
 70
    0
280
    1
281
    0
  0
BLOCK_RECORD
  5
80
330
1
100
AcDbSymbolTableRecord
100
AcDbBlockTableRecord
  2
safetyGogglesLensR2-16
 70
    0
280
    1
281
    0
  0
BLOCK_RECORD
  5
83
330
1
100
AcDbSymbolTableRecord
100
AcDbBlockTableRecord
  2
safetyGogglesLensR2-17
 70
    0
280
    1
281
    0
  0
BLOCK_RECORD
  5
86
330
1
100
AcDbSymbolTableRecord
100
AcDbBlockTableRecord
  2
safetyGogglesLensR2-18
 70
    0
280
    1
281
    0
  0
ENDTAB
  0
ENDSEC
  0
SECTION
  2
BLOCKS
  0
BLOCK
  5
20
330
1F
100
AcDbEntity
  8
0
100
AcDbBlockBegin
  2
*Model_Space
 70
    0
 10
0
 20
0
 30
0
  3
*Model_Space
  1

  0
ENDBLK
  5
21
330
1F
100
AcDbEntity
  8
0
100
AcDbBlockEnd
  0
BLOCK
  5
1C
330
1B
100
AcDbEntity
  8
0
100
AcDbBlockBegin
  2
*Paper_Space
 70
    0
 10
0
 20
0
 30
0
  3
*Paper_Space
  1

  0
ENDBLK
  5
1D
330
1F
100
AcDbEntity
  8
0
100
AcDbBlockEnd
  0
BLOCK
  5
4E
330
4D
100
AcDbEntity
  8
0
100
AcDbBlockBegin
  2
safetyGogglesLensR2
 70
    0
 10
0
 20
0
  3
safetyGogglesLensR2
  1

  0
LINE
  5
89
100
AcDbEntity
  8
0
  6
CONTINUOUS
 62
    7
370
   25
100
AcDbLine
 10
139.7
 20
12.7
 11
139.7
 21
47.625
  0
ARC
  5
8A
100
AcDbEntity
  8
0
  6
CONTINUOUS
 62
    7
370
   25
100
AcDbCircle
 10
-7.04973208034
 20
-159.69242843772
 40
254
100
AcDbArc
 50
54.707214758
 51
75.06311546969999
  0
LINE
  5
8B
100
AcDbEntity
  8
0
  6
CONTINUOUS
 62
    7
370
   25
100
AcDbLine
 10
58.41999999999999
 20
85.72499999999999
 11
-58.41999999999999
 21
85.72499999999999
  0
ARC
  5
8C
100
AcDbEntity
  8
0
  6
CONTINUOUS
 62
    7
370
   25
100
AcDbCircle
 10
7.04973208034
 20
-159.69242843772
 40
254
100
AcDbArc
 50
104.9368845303
 51
125.292785242
  0
LINE
  5
8D
100
AcDbEntity
  8
0
  6
CONTINUOUS
 62
    7
370
   25
100
AcDbLine
 10
-139.7
 20
47.625
 11
-139.7
 21
12.7
  0
ARC
  5
8E
100
AcDbEntity
  8
0
  6
CONTINUOUS
 62
    7
370
   25
100
AcDbCircle
 10
-13.32871403594
 20
261.88799747264
 40
279.4
100
AcDbArc
 50
243.1089611431
 51
263.6103588475
  0
ARC
  5
8F
100
AcDbEntity
  8
0
  6
CONTINUOUS
 62
    7
370
   25
100
AcDbCircle
 10
-42.65621657462
 20
0
 40
15.87499999999995
100
AcDbArc
 50
263.6103588475
 51
315
  0
LINE
  5
90
100
AcDbEntity
  8
0
  6
CONTINUOUS
 62
    7
370
   25
100
AcDbLine
 10
-31.43089642434
 20
-11.22532015028
 11
-10.10278813576
 21
10.10278813576
  0
ARC
  5
91
100
AcDbEntity
  8
0
  6
CONTINUOUS
 62
    7
370
   25
100
AcDbCircle
 10
0
 20
0
 40
14.28749999999999
100
AcDbArc
 50
45
 51
135
  0
LINE
  5
92
100
AcDbEntity
  8
0
  6
CONTINUOUS
 62
    7
370
   25
100
AcDbLine
 10
10.10278813576
 20
10.10278813576
 11
31.43089642434
 21
-11.22532015028
  0
ARC
  5
93
100
AcDbEntity
  8
0
  6
CONTINUOUS
 62
    7
370
   25
100
AcDbCircle
 10
42.65621657462
 20
0
 40
15.875
100
AcDbArc
 50
225
 51
276.3896411525
  0
ARC
  5
94
100
AcDbEntity
  8
0
  6
CONTINUOUS
 62
    7
370
   25
100
AcDbCircle
 10
13.32871403594
 20
261.88799747264
 40
279.4
100
AcDbArc
 50
276.3896411525
 51
296.8910388569
  0
CIRCLE
  5
95
100
AcDbEntity
  8
0
  6
CONTINUOUS
 62
    7
370
   25
100
AcDbCircle
 10
36.195
 20
74.6125
 40
2.540000000000002
  0
CIRCLE
  5
96
100
AcDbEntity
  8
0
  6
CONTINUOUS
 62
    7
370
   25
100
AcDbCircle
 10
-36.195
 20
74.6125
 40
2.540000000000002
  0
CIRCLE
  5
97
100
AcDbEntity
  8
0
  6
CONTINUOUS
 62
    7
370
   25
100
AcDbCircle
 10
-112.7252
 20
47.6377
 40
2.53999999999999
  0
CIRCLE
  5
98
100
AcDbEntity
  8
0
  6
CONTINUOUS
 62
    7
370
   25
100
AcDbCircle
 10
112.7252
 20
47.6377
 40
2.53999999999999
  0
ENDBLK
  5
4F
330
4D
100
AcDbEntity
  8
0
100
AcDbBlockEnd
  0
BLOCK
  5
51
330
50
100
AcDbEntity
  8
0
100
AcDbBlockBegin
  2
safetyGogglesLensR2-0
 70
    0
 10
0
 20
0
  3
safetyGogglesLensR2-0
  1

  0
LINE
  5
99
100
AcDbEntity
  8
0
  6
CONTINUOUS
 62
    7
370
   25
100
AcDbLine
 10
139.7
 20
12.7
 11
139.7
 21
47.625
  0
ARC
  5
9A
100
AcDbEntity
  8
0
  6
CONTINUOUS
 62
    7
370
   25
100
AcDbCircle
 10
-7.04973208034
 20
-159.69242843772
 40
254
100
AcDbArc
 50
54.707214758
 51
75.06311546969999
  0
LINE
  5
9B
100
AcDbEntity
  8
0
  6
CONTINUOUS
 62
    7
370
   25
100
AcDbLine
 10
58.41999999999999
 20
85.72499999999999
 11
-58.41999999999999
 21
85.72499999999999
  0
ARC
  5
9C
100
AcDbEntity
  8
0
  6
CONTINUOUS
 62
    7
370
   25
100
AcDbCircle
 10
7.04973208034
 20
-159.69242843772
 40
254
100
AcDbArc
 50
104.9368845303
 51
125.292785242
  0
LINE
  5
9D
100
AcDbEntity
  8
0
  6
CONTINUOUS
 62
    7
370
   25
100
AcDbLine
 10
-139.7
 20
47.625
 11
-139.7
 21
12.7
  0
ARC
  5
9E
100
AcDbEntity
  8
0
  6
CONTINUOUS
 62
    7
370
   25
100
AcDbCircle
 10
-13.32871403594
 20
261.88799747264
 40
279.4
100
AcDbArc
 50
243.1089611431
 51
263.6103588475
  0
ARC
  5
9F
100
AcDbEntity
  8
0
  6
CONTINUOUS
 62
    7
370
   25
100
AcDbCircle
 10
-42.65621657462
 20
0
 40
15.87499999999995
100
AcDbArc
 50
263.6103588475
 51
315
  0
LINE
  5
A0
100
AcDbEntity
  8
0
  6
CONTINUOUS
 62
    7
370
   25
100
AcDbLine
 10
-31.43089642434
 20
-11.22532015028
 11
-10.10278813576
 21
10.10278813576
  0
ARC
  5
A1
100
AcDbEntity
  8
0
  6
CONTINUOUS
 62
    7
370
   25
100
AcDbCircle
 10
0
 20
0
 40
14.28749999999999
100
AcDbArc
 50
45
 51
135
  0
LINE
  5
A2
100
AcDbEntity
  8
0
  6
CONTINUOUS
 62
    7
370
   25
100
AcDbLine
 10
10.10278813576
 20
10.10278813576
 11
31.43089642434
 21
-11.22532015028
  0
ARC
  5
A3
100
AcDbEntity
  8
0
  6
CONTINUOUS
 62
    7
370
   25
100
AcDbCircle
 10
42.65621657462
 20
0
 40
15.875
100
AcDbArc
 50
225
 51
276.3896411525
  0
ARC
  5
A4
100
AcDbEntity
  8
0
  6
CONTINUOUS
 62
    7
370
   25
100
AcDbCircle
 10
13.32871403594
 20
261.88799747264
 40
279.4
100
AcDbArc
 50
276.3896411525
 51
296.8910388569
  0
CIRCLE
  5
A5
100
AcDbEntity
  8
0
  6
CONTINUOUS
 62
    7
370
   25
100
AcDbCircle
 10
36.195
 20
74.6125
 40
2.540000000000002
  0
CIRCLE
  5
A6
100
AcDbEntity
  8
0
  6
CONTINUOUS
 62
    7
370
   25
100
AcDbCircle
 10
-36.195
 20
74.6125
 40
2.540000000000002
  0
CIRCLE
  5
A7
100
AcDbEntity
  8
0
  6
CONTINUOUS
 62
    7
370
   25
100
AcDbCircle
 10
-112.7252
 20
47.6377
 40
2.53999999999999
  0
CIRCLE
  5
A8
100
AcDbEntity
  8
0
  6
CONTINUOUS
 62
    7
370
   25
100
AcDbCircle
 10
112.7252
 20
47.6377
 40
2.53999999999999
  0
ENDBLK
  5
52
330
50
100
AcDbEntity
  8
0
100
AcDbBlockEnd
  0
BLOCK
  5
54
330
53
100
AcDbEntity
  8
0
100
AcDbBlockBegin
  2
safetyGogglesLensR2-1
 70
    0
 10
0
 20
0
  3
safetyGogglesLensR2-1
  1

  0
LINE
  5
A9
100
AcDbEntity
  8
0
  6
CONTINUOUS
 62
    7
370
   25
100
AcDbLine
 10
139.7
 20
12.7
 11
139.7
 21
47.625
  0
ARC
  5
AA
100
AcDbEntity
  8
0
  6
CONTINUOUS
 62
    7
370
   25
100
AcDbCircle
 10
-7.04973208034
 20
-159.69242843772
 40
254
100
AcDbArc
 50
54.707214758
 51
75.06311546969999
  0
LINE
  5
AB
100
AcDbEntity
  8
0
  6
CONTINUOUS
 62
    7
370
   25
100
AcDbLine
 10
58.41999999999999
 20
85.72499999999999
 11
-58.41999999999999
 21
85.72499999999999
  0
ARC
  5
AC
100
AcDbEntity
  8
0
  6
CONTINUOUS
 62
    7
370
   25
100
AcDbCircle
 10
7.04973208034
 20
-159.69242843772
 40
254
100
AcDbArc
 50
104.9368845303
 51
125.292785242
  0
LINE
  5
AD
100
AcDbEntity
  8
0
  6
CONTINUOUS
 62
    7
370
   25
100
AcDbLine
 10
-139.7
 20
47.625
 11
-139.7
 21
12.7
  0
ARC
  5
AE
100
AcDbEntity
  8
0
  6
CONTINUOUS
 62
    7
370
   25
100
AcDbCircle
 10
-13.32871403594
 20
261.88799747264
 40
279.4
100
AcDbArc
 50
243.1089611431
 51
263.6103588475
  0
ARC
  5
AF
100
AcDbEntity
  8
0
  6
CONTINUOUS
 62
    7
370
   25
100
AcDbCircle
 10
-42.65621657462
 20
0
 40
15.87499999999995
100
AcDbArc
 50
263.6103588475
 51
315
  0
LINE
  5
B0
100
AcDbEntity
  8
0
  6
CONTINUOUS
 62
    7
370
   25
100
AcDbLine
 10
-31.43089642434
 20
-11.22532015028
 11
-10.10278813576
 21
10.10278813576
  0
ARC
  5
B1
100
AcDbEntity
  8
0
  6
CONTINUOUS
 62
    7
370
   25
100
AcDbCircle
 10
0
 20
0
 40
14.28749999999999
100
AcDbArc
 50
45
 51
135
  0
LINE
  5
B2
100
AcDbEntity
  8
0
  6
CONTINUOUS
 62
    7
370
   25
100
AcDbLine
 10
10.10278813576
 20
10.10278813576
 11
31.43089642434
 21
-11.22532015028
  0
ARC
  5
B3
100
AcDbEntity
  8
0
  6
CONTINUOUS
 62
    7
370
   25
100
AcDbCircle
 10
42.65621657462
 20
0
 40
15.875
100
AcDbArc
 50
225
 51
276.3896411525
  0
ARC
  5
B4
100
AcDbEntity
  8
0
  6
CONTINUOUS
 62
    7
370
   25
100
AcDbCircle
 10
13.32871403594
 20
261.88799747264
 40
279.4
100
AcDbArc
 50
276.3896411525
 51
296.8910388569
  0
CIRCLE
  5
B5
100
AcDbEntity
  8
0
  6
CONTINUOUS
 62
    7
370
   25
100
AcDbCircle
 10
36.195
 20
74.6125
 40
2.540000000000002
  0
CIRCLE
  5
B6
100
AcDbEntity
  8
0
  6
CONTINUOUS
 62
    7
370
   25
100
AcDbCircle
 10
-36.195
 20
74.6125
 40
2.540000000000002
  0
CIRCLE
  5
B7
100
AcDbEntity
  8
0
  6
CONTINUOUS
 62
    7
370
   25
100
AcDbCircle
 10
-112.7252
 20
47.6377
 40
2.53999999999999
  0
CIRCLE
  5
B8
100
AcDbEntity
  8
0
  6
CONTINUOUS
 62
    7
370
   25
100
AcDbCircle
 10
112.7252
 20
47.6377
 40
2.53999999999999
  0
ENDBLK
  5
55
330
53
100
AcDbEntity
  8
0
100
AcDbBlockEnd
  0
BLOCK
  5
57
330
56
100
AcDbEntity
  8
0
100
AcDbBlockBegin
  2
safetyGogglesLensR2-2
 70
    0
 10
0
 20
0
  3
safetyGogglesLensR2-2
  1

  0
LINE
  5
B9
100
AcDbEntity
  8
0
  6
CONTINUOUS
 62
    7
370
   25
100
AcDbLine
 10
139.7
 20
12.7
 11
139.7
 21
47.625
  0
ARC
  5
BA
100
AcDbEntity
  8
0
  6
CONTINUOUS
 62
    7
370
   25
100
AcDbCircle
 10
-7.04973208034
 20
-159.69242843772
 40
254
100
AcDbArc
 50
54.707214758
 51
75.06311546969999
  0
LINE
  5
BB
100
AcDbEntity
  8
0
  6
CONTINUOUS
 62
    7
370
   25
100
AcDbLine
 10
58.41999999999999
 20
85.72499999999999
 11
-58.41999999999999
 21
85.72499999999999
  0
ARC
  5
BC
100
AcDbEntity
  8
0
  6
CONTINUOUS
 62
    7
370
   25
100
AcDbCircle
 10
7.04973208034
 20
-159.69242843772
 40
254
100
AcDbArc
 50
104.9368845303
 51
125.292785242
  0
LINE
  5
BD
100
AcDbEntity
  8
0
  6
CONTINUOUS
 62
    7
370
   25
100
AcDbLine
 10
-139.7
 20
47.625
 11
-139.7
 21
12.7
  0
ARC
  5
BE
100
AcDbEntity
  8
0
  6
CONTINUOUS
 62
    7
370
   25
100
AcDbCircle
 10
-13.32871403594
 20
261.88799747264
 40
279.4
100
AcDbArc
 50
243.1089611431
 51
263.6103588475
  0
ARC
  5
BF
100
AcDbEntity
  8
0
  6
CONTINUOUS
 62
    7
370
   25
100
AcDbCircle
 10
-42.65621657462
 20
0
 40
15.87499999999995
100
AcDbArc
 50
263.6103588475
 51
315
  0
LINE
  5
C0
100
AcDbEntity
  8
0
  6
CONTINUOUS
 62
    7
370
   25
100
AcDbLine
 10
-31.43089642434
 20
-11.22532015028
 11
-10.10278813576
 21
10.10278813576
  0
ARC
  5
C1
100
AcDbEntity
  8
0
  6
CONTINUOUS
 62
    7
370
   25
100
AcDbCircle
 10
0
 20
0
 40
14.28749999999999
100
AcDbArc
 50
45
 51
135
  0
LINE
  5
C2
100
AcDbEntity
  8
0
  6
CONTINUOUS
 62
    7
370
   25
100
AcDbLine
 10
10.10278813576
 20
10.10278813576
 11
31.43089642434
 21
-11.22532015028
  0
ARC
  5
C3
100
AcDbEntity
  8
0
  6
CONTINUOUS
 62
    7
370
   25
100
AcDbCircle
 10
42.65621657462
 20
0
 40
15.875
100
AcDbArc
 50
225
 51
276.3896411525
  0
ARC
  5
C4
100
AcDbEntity
  8
0
  6
CONTINUOUS
 62
    7
370
   25
100
AcDbCircle
 10
13.32871403594
 20
261.88799747264
 40
279.4
100
AcDbArc
 50
276.3896411525
 51
296.8910388569
  0
CIRCLE
  5
C5
100
AcDbEntity
  8
0
  6
CONTINUOUS
 62
    7
370
   25
100
AcDbCircle
 10
36.195
 20
74.6125
 40
2.540000000000002
  0
CIRCLE
  5
C6
100
AcDbEntity
  8
0
  6
CONTINUOUS
 62
    7
370
   25
100
AcDbCircle
 10
-36.195
 20
74.6125
 40
2.540000000000002
  0
CIRCLE
  5
C7
100
AcDbEntity
  8
0
  6
CONTINUOUS
 62
    7
370
   25
100
AcDbCircle
 10
-112.7252
 20
47.6377
 40
2.53999999999999
  0
CIRCLE
  5
C8
100
AcDbEntity
  8
0
  6
CONTINUOUS
 62
    7
370
   25
100
AcDbCircle
 10
112.7252
 20
47.6377
 40
2.53999999999999
  0
ENDBLK
  5
58
330
56
100
AcDbEntity
  8
0
100
AcDbBlockEnd
  0
BLOCK
  5
5A
330
59
100
AcDbEntity
  8
0
100
AcDbBlockBegin
  2
safetyGogglesLensR2-3
 70
    0
 10
0
 20
0
  3
safetyGogglesLensR2-3
  1

  0
LINE
  5
C9
100
AcDbEntity
  8
0
  6
CONTINUOUS
 62
    7
370
   25
100
AcDbLine
 10
289.7
 20
362.7
 11
289.7
 21
397.625
  0
ARC
  5
CA
100
AcDbEntity
  8
0
  6
CONTINUOUS
 62
    7
370
   25
100
AcDbCircle
 10
142.95026791966
 20
190.30757156228
 40
254
100
AcDbArc
 50
54.707214758
 51
75.06311546969999
  0
LINE
  5
CB
100
AcDbEntity
  8
0
  6
CONTINUOUS
 62
    7
370
   25
100
AcDbLine
 10
208.42
 20
435.725
 11
91.58000000000001
 21
435.725
  0
ARC
  5
CC
100
AcDbEntity
  8
0
  6
CONTINUOUS
 62
    7
370
   25
100
AcDbCircle
 10
157.04973208034
 20
190.30757156228
 40
254
100
AcDbArc
 50
104.9368845303
 51
125.292785242
  0
LINE
  5
CD
100
AcDbEntity
  8
0
  6
CONTINUOUS
 62
    7
370
   25
100
AcDbLine
 10
10.30000000000001
 20
397.625
 11
10.30000000000001
 21
362.7
  0
ARC
  5
CE
100
AcDbEntity
  8
0
  6
CONTINUOUS
 62
    7
370
   25
100
AcDbCircle
 10
136.67128596406
 20
611.88799747264
 40
279.4
100
AcDbArc
 50
243.1089611431
 51
263.6103588475
  0
ARC
  5
CF
100
AcDbEntity
  8
0
  6
CONTINUOUS
 62
    7
370
   25
100
AcDbCircle
 10
107.34378342538
 20
350
 40
15.87499999999995
100
AcDbArc
 50
263.6103588475
 51
315
  0
LINE
  5
D0
100
AcDbEntity
  8
0
  6
CONTINUOUS
 62
    7
370
   25
100
AcDbLine
 10
118.56910357566
 20
338.77467984972
 11
139.89721186424
 21
360.10278813576
  0
ARC
  5
D1
100
AcDbEntity
  8
0
  6
CONTINUOUS
 62
    7
370
   25
100
AcDbCircle
 10
150
 20
350
 40
14.28749999999999
100
AcDbArc
 50
45
 51
135
  0
LINE
  5
D2
100
AcDbEntity
  8
0
  6
CONTINUOUS
 62
    7
370
   25
100
AcDbLine
 10
160.10278813576
 20
360.10278813576
 11
181.43089642434
 21
338.77467984972
  0
ARC
  5
D3
100
AcDbEntity
  8
0
  6
CONTINUOUS
 62
    7
370
   25
100
AcDbCircle
 10
192.65621657462
 20
350
 40
15.875
100
AcDbArc
 50
225
 51
276.3896411525
  0
ARC
  5
D4
100
AcDbEntity
  8
0
  6
CONTINUOUS
 62
    7
370
   25
100
AcDbCircle
 10
163.32871403594
 20
611.88799747264
 40
279.4
100
AcDbArc
 50
276.3896411525
 51
296.8910388569
  0
CIRCLE
  5
D5
100
AcDbEntity
  8
0
  6
CONTINUOUS
 62
    7
370
   25
100
AcDbCircle
 10
186.195
 20
424.6125
 40
2.540000000000002
  0
CIRCLE
  5
D6
100
AcDbEntity
  8
0
  6
CONTINUOUS
 62
    7
370
   25
100
AcDbCircle
 10
113.805
 20
424.6125
 40
2.540000000000002
  0
CIRCLE
  5
D7
100
AcDbEntity
  8
0
  6
CONTINUOUS
 62
    7
370
   25
100
AcDbCircle
 10
37.27480000000001
 20
397.6377
 40
2.53999999999999
  0
CIRCLE
  5
D8
100
AcDbEntity
  8
0
  6
CONTINUOUS
 62
    7
370
   25
100
AcDbCircle
 10
262.7252
 20
397.6377
 40
2.53999999999999
  0
ENDBLK
  5
5B
330
59
100
AcDbEntity
  8
0
100
AcDbBlockEnd
  0
BLOCK
  5
5D
330
5C
100
AcDbEntity
  8
0
100
AcDbBlockBegin
  2
safetyGogglesLensR2-4
 70
    0
 10
0
 20
0
  3
safetyGogglesLensR2-4
  1

  0
LINE
  5
D9
100
AcDbEntity
  8
0
  6
CONTINUOUS
 62
    7
370
   25
100
AcDbLine
 10
289.7
 20
252.7
 11
289.7
 21
287.625
  0
ARC
  5
DA
100
AcDbEntity
  8
0
  6
CONTINUOUS
 62
    7
370
   25
100
AcDbCircle
 10
142.95026791966
 20
80.30757156228
 40
254
100
AcDbArc
 50
54.707214758
 51
75.06311546969999
  0
LINE
  5
DB
100
AcDbEntity
  8
0
  6
CONTINUOUS
 62
    7
370
   25
100
AcDbLine
 10
208.42
 20
325.725
 11
91.58000000000001
 21
325.725
  0
ARC
  5
DC
100
AcDbEntity
  8
0
  6
CONTINUOUS
 62
    7
370
   25
100
AcDbCircle
 10
157.04973208034
 20
80.30757156228
 40
254
100
AcDbArc
 50
104.9368845303
 51
125.292785242
  0
LINE
  5
DD
100
AcDbEntity
  8
0
  6
CONTINUOUS
 62
    7
370
   25
100
AcDbLine
 10
10.30000000000001
 20
287.625
 11
10.30000000000001
 21
252.7
  0
ARC
  5
DE
100
AcDbEntity
  8
0
  6
CONTINUOUS
 62
    7
370
   25
100
AcDbCircle
 10
136.67128596406
 20
501.88799747264
 40
279.4
100
AcDbArc
 50
243.1089611431
 51
263.6103588475
  0
ARC
  5
DF
100
AcDbEntity
  8
0
  6
CONTINUOUS
 62
    7
370
   25
100
AcDbCircle
 10
107.34378342538
 20
240
 40
15.87499999999995
100
AcDbArc
 50
263.6103588475
 51
315
  0
LINE
  5
E0
100
AcDbEntity
  8
0
  6
CONTINUOUS
 62
    7
370
   25
100
AcDbLine
 10
118.56910357566
 20
228.77467984972
 11
139.89721186424
 21
250.10278813576
  0
ARC
  5
E1
100
AcDbEntity
  8
0
  6
CONTINUOUS
 62
    7
370
   25
100
AcDbCircle
 10
150
 20
240
 40
14.28749999999999
100
AcDbArc
 50
45
 51
135
  0
LINE
  5
E2
100
AcDbEntity
  8
0
  6
CONTINUOUS
 62
    7
370
   25
100
AcDbLine
 10
160.10278813576
 20
250.10278813576
 11
181.43089642434
 21
228.77467984972
  0
ARC
  5
E3
100
AcDbEntity
  8
0
  6
CONTINUOUS
 62
    7
370
   25
100
AcDbCircle
 10
192.65621657462
 20
240
 40
15.875
100
AcDbArc
 50
225
 51
276.3896411525
  0
ARC
  5
E4
100
AcDbEntity
  8
0
  6
CONTINUOUS
 62
    7
370
   25
100
AcDbCircle
 10
163.32871403594
 20
501.88799747264
 40
279.4
100
AcDbArc
 50
276.3896411525
 51
296.8910388569
  0
CIRCLE
  5
E5
100
AcDbEntity
  8
0
  6
CONTINUOUS
 62
    7
370
   25
100
AcDbCircle
 10
186.195
 20
314.6125
 40
2.540000000000002
  0
CIRCLE
  5
E6
100
AcDbEntity
  8
0
  6
CONTINUOUS
 62
    7
370
   25
100
AcDbCircle
 10
113.805
 20
314.6125
 40
2.540000000000002
  0
CIRCLE
  5
E7
100
AcDbEntity
  8
0
  6
CONTINUOUS
 62
    7
370
   25
100
AcDbCircle
 10
37.27480000000001
 20
287.6377
 40
2.53999999999999
  0
CIRCLE
  5
E8
100
AcDbEntity
  8
0
  6
CONTINUOUS
 62
    7
370
   25
100
AcDbCircle
 10
262.7252
 20
287.6377
 40
2.53999999999999
  0
ENDBLK
  5
5E
330
5C
100
AcDbEntity
  8
0
100
AcDbBlockEnd
  0
BLOCK
  5
60
330
5F
100
AcDbEntity
  8
0
100
AcDbBlockBegin
  2
safetyGogglesLensR2-5
 70
    0
 10
0
 20
0
  3
safetyGogglesLensR2-5
  1

  0
LINE
  5
E9
100
AcDbEntity
  8
0
  6
CONTINUOUS
 62
    7
370
   25
100
AcDbLine
 10
289.7
 20
142.7
 11
289.7
 21
177.625
  0
ARC
  5
EA
100
AcDbEntity
  8
0
  6
CONTINUOUS
 62
    7
370
   25
100
AcDbCircle
 10
142.95026791966
 20
-29.69242843772
 40
254
100
AcDbArc
 50
54.707214758
 51
75.06311546969999
  0
LINE
  5
EB
100
AcDbEntity
  8
0
  6
CONTINUOUS
 62
    7
370
   25
100
AcDbLine
 10
208.42
 20
215.725
 11
91.58000000000001
 21
215.725
  0
ARC
  5
EC
100
AcDbEntity
  8
0
  6
CONTINUOUS
 62
    7
370
   25
100
AcDbCircle
 10
157.04973208034
 20
-29.69242843772
 40
254
100
AcDbArc
 50
104.9368845303
 51
125.292785242
  0
LINE
  5
ED
100
AcDbEntity
  8
0
  6
CONTINUOUS
 62
    7
370
   25
100
AcDbLine
 10
10.30000000000001
 20
177.625
 11
10.30000000000001
 21
142.7
  0
ARC
  5
EE
100
AcDbEntity
  8
0
  6
CONTINUOUS
 62
    7
370
   25
100
AcDbCircle
 10
136.67128596406
 20
391.88799747264
 40
279.4
100
AcDbArc
 50
243.1089611431
 51
263.6103588475
  0
ARC
  5
EF
100
AcDbEntity
  8
0
  6
CONTINUOUS
 62
    7
370
   25
100
AcDbCircle
 10
107.34378342538
 20
130
 40
15.87499999999995
100
AcDbArc
 50
263.6103588475
 51
315
  0
LINE
  5
F0
100
AcDbEntity
  8
0
  6
CONTINUOUS
 62
    7
370
   25
100
AcDbLine
 10
118.56910357566
 20
118.77467984972
 11
139.89721186424
 21
140.10278813576
  0
ARC
  5
F1
100
AcDbEntity
  8
0
  6
CONTINUOUS
 62
    7
370
   25
100
AcDbCircle
 10
150
 20
130
 40
14.28749999999999
100
AcDbArc
 50
45
 51
135
  0
LINE
  5
F2
100
AcDbEntity
  8
0
  6
CONTINUOUS
 62
    7
370
   25
100
AcDbLine
 10
160.10278813576
 20
140.10278813576
 11
181.43089642434
 21
118.77467984972
  0
ARC
  5
F3
100
AcDbEntity
  8
0
  6
CONTINUOUS
 62
    7
370
   25
100
AcDbCircle
 10
192.65621657462
 20
130
 40
15.875
100
AcDbArc
 50
225
 51
276.3896411525
  0
ARC
  5
F4
100
AcDbEntity
  8
0
  6
CONTINUOUS
 62
    7
370
   25
100
AcDbCircle
 10
163.32871403594
 20
391.88799747264
 40
279.4
100
AcDbArc
 50
276.3896411525
 51
296.8910388569
  0
CIRCLE
  5
F5
100
AcDbEntity
  8
0
  6
CONTINUOUS
 62
    7
370
   25
100
AcDbCircle
 10
186.195
 20
204.6125
 40
2.540000000000002
  0
CIRCLE
  5
F6
100
AcDbEntity
  8
0
  6
CONTINUOUS
 62
    7
370
   25
100
AcDbCircle
 10
113.805
 20
204.6125
 40
2.540000000000002
  0
CIRCLE
  5
F7
100
AcDbEntity
  8
0
  6
CONTINUOUS
 62
    7
370
   25
100
AcDbCircle
 10
37.27480000000001
 20
177.6377
 40
2.53999999999999
  0
CIRCLE
  5
F8
100
AcDbEntity
  8
0
  6
CONTINUOUS
 62
    7
370
   25
100
AcDbCircle
 10
262.7252
 20
177.6377
 40
2.53999999999999
  0
ENDBLK
  5
61
330
5F
100
AcDbEntity
  8
0
100
AcDbBlockEnd
  0
BLOCK
  5
63
330
62
100
AcDbEntity
  8
0
100
AcDbBlockBegin
  2
safetyGogglesLensR2-6
 70
    0
 10
0
 20
0
  3
safetyGogglesLensR2-6
  1

  0
LINE
  5
F9
100
AcDbEntity
  8
0
  6
CONTINUOUS
 62
    7
370
   25
100
AcDbLine
 10
289.7
 20
32.7
 11
289.7
 21
67.625
  0
ARC
  5
FA
100
AcDbEntity
  8
0
  6
CONTINUOUS
 62
    7
370
   25
100
AcDbCircle
 10
142.95026791966
 20
-139.69242843772
 40
254
100
AcDbArc
 50
54.707214758
 51
75.06311546969999
  0
LINE
  5
FB
100
AcDbEntity
  8
0
  6
CONTINUOUS
 62
    7
370
   25
100
AcDbLine
 10
208.42
 20
105.725
 11
91.58000000000001
 21
105.725
  0
ARC
  5
FC
100
AcDbEntity
  8
0
  6
CONTINUOUS
 62
    7
370
   25
100
AcDbCircle
 10
157.04973208034
 20
-139.69242843772
 40
254
100
AcDbArc
 50
104.9368845303
 51
125.292785242
  0
LINE
  5
FD
100
AcDbEntity
  8
0
  6
CONTINUOUS
 62
    7
370
   25
100
AcDbLine
 10
10.30000000000001
 20
67.625
 11
10.30000000000001
 21
32.7
  0
ARC
  5
FE
100
AcDbEntity
  8
0
  6
CONTINUOUS
 62
    7
370
   25
100
AcDbCircle
 10
136.67128596406
 20
281.88799747264
 40
279.4
100
AcDbArc
 50
243.1089611431
 51
263.6103588475
  0
ARC
  5
FF
100
AcDbEntity
  8
0
  6
CONTINUOUS
 62
    7
370
   25
100
AcDbCircle
 10
107.34378342538
 20
20
 40
15.87499999999995
100
AcDbArc
 50
263.6103588475
 51
315
  0
LINE
  5
100
100
AcDbEntity
  8
0
  6
CONTINUOUS
 62
    7
370
   25
100
AcDbLine
 10
118.56910357566
 20
8.77467984972
 11
139.89721186424
 21
30.10278813576
  0
ARC
  5
101
100
AcDbEntity
  8
0
  6
CONTINUOUS
 62
    7
370
   25
100
AcDbCircle
 10
150
 20
20
 40
14.28749999999999
100
AcDbArc
 50
45
 51
135
  0
LINE
  5
102
100
AcDbEntity
  8
0
  6
CONTINUOUS
 62
    7
370
   25
100
AcDbLine
 10
160.10278813576
 20
30.10278813576
 11
181.43089642434
 21
8.77467984972
  0
ARC
  5
103
100
AcDbEntity
  8
0
  6
CONTINUOUS
 62
    7
370
   25
100
AcDbCircle
 10
192.65621657462
 20
20
 40
15.875
100
AcDbArc
 50
225
 51
276.3896411525
  0
ARC
  5
104
100
AcDbEntity
  8
0
  6
CONTINUOUS
 62
    7
370
   25
100
AcDbCircle
 10
163.32871403594
 20
281.88799747264
 40
279.4
100
AcDbArc
 50
276.3896411525
 51
296.8910388569
  0
CIRCLE
  5
105
100
AcDbEntity
  8
0
  6
CONTINUOUS
 62
    7
370
   25
100
AcDbCircle
 10
186.195
 20
94.6125
 40
2.540000000000002
  0
CIRCLE
  5
106
100
AcDbEntity
  8
0
  6
CONTINUOUS
 62
    7
370
   25
100
AcDbCircle
 10
113.805
 20
94.6125
 40
2.540000000000002
  0
CIRCLE
  5
107
100
AcDbEntity
  8
0
  6
CONTINUOUS
 62
    7
370
   25
100
AcDbCircle
 10
37.27480000000001
 20
67.6377
 40
2.53999999999999
  0
CIRCLE
  5
108
100
AcDbEntity
  8
0
  6
CONTINUOUS
 62
    7
370
   25
100
AcDbCircle
 10
262.7252
 20
67.6377
 40
2.53999999999999
  0
ENDBLK
  5
64
330
62
100
AcDbEntity
  8
0
100
AcDbBlockEnd
  0
BLOCK
  5
66
330
65
100
AcDbEntity
  8
0
100
AcDbBlockBegin
  2
safetyGogglesLensR2-7
 70
    0
 10
0
 20
0
  3
safetyGogglesLensR2-7
  1

  0
LINE
  5
109
100
AcDbEntity
  8
0
  6
CONTINUOUS
 62
    7
370
   25
100
AcDbLine
 10
77.30000000000003
 20
289.7
 11
42.37500000000001
 21
289.7
  0
ARC
  5
10A
100
AcDbEntity
  8
0
  6
CONTINUOUS
 62
    7
370
   25
100
AcDbCircle
 10
249.69242843772
 20
142.9502679196601
 40
254
100
AcDbArc
 50
144.707214758
 51
165.0631154697
  0
LINE
  5
10B
100
AcDbEntity
  8
0
  6
CONTINUOUS
 62
    7
370
   25
100
AcDbLine
 10
4.27499999999999
 20
208.42
 11
4.274999999999983
 21
91.58000000000007
  0
ARC
  5
10C
100
AcDbEntity
  8
0
  6
CONTINUOUS
 62
    7
370
   25
100
AcDbCircle
 10
249.69242843772
 20
157.0497320803399
 40
254
100
AcDbArc
 50
194.9368845303
 51
215.292785242
  0
LINE
  5
10D
100
AcDbEntity
  8
0
  6
CONTINUOUS
 62
    7
370
   25
100
AcDbLine
 10
42.375
 20
10.30000000000004
 11
77.30000000000001
 21
10.30000000000003
  0
ARC
  5
10E
100
AcDbEntity
  8
0
  6
CONTINUOUS
 62
    7
370
   25
100
AcDbCircle
 10
-171.88799747264
 20
136.67128596406
 40
279.4
100
AcDbArc
 50
333.1089611431
 51
353.6103588475
  0
ARC
  5
10F
100
AcDbEntity
  8
0
  6
CONTINUOUS
 62
    7
370
   25
100
AcDbCircle
 10
90
 20
107.3437834253801
 40
15.87499999999995
100
AcDbArc
 50
353.6103588475
 51
45
  0
LINE
  5
110
100
AcDbEntity
  8
0
  6
CONTINUOUS
 62
    7
370
   25
100
AcDbLine
 10
101.22532015028
 20
118.56910357566
 11
79.89721186423999
 21
139.8972118642401
  0
ARC
  5
111
100
AcDbEntity
  8
0
  6
CONTINUOUS
 62
    7
370
   25
100
AcDbCircle
 10
90
 20
150
 40
14.28749999999999
100
AcDbArc
 50
135
 51
225
  0
LINE
  5
112
100
AcDbEntity
  8
0
  6
CONTINUOUS
 62
    7
370
   25
100
AcDbLine
 10
79.89721186423999
 20
160.10278813576
 11
101.22532015028
 21
181.4308964243401
  0
ARC
  5
113
100
AcDbEntity
  8
0
  6
CONTINUOUS
 62
    7
370
   25
100
AcDbCircle
 10
90
 20
192.65621657462
 40
15.875
100
AcDbArc
 50
315
 51
6.389641152500004
  0
ARC
  5
114
100
AcDbEntity
  8
0
  6
CONTINUOUS
 62
    7
370
   25
100
AcDbCircle
 10
-171.88799747264
 20
163.3287140359401
 40
279.4
100
AcDbArc
 50
6.389641152500004
 51
26.89103885690004
  0
CIRCLE
  5
115
100
AcDbEntity
  8
0
  6
CONTINUOUS
 62
    7
370
   25
100
AcDbCircle
 10
15.38749999999999
 20
186.195
 40
2.540000000000002
  0
CIRCLE
  5
116
100
AcDbEntity
  8
0
  6
CONTINUOUS
 62
    7
370
   25
100
AcDbCircle
 10
15.38749999999999
 20
113.8050000000001
 40
2.540000000000002
  0
CIRCLE
  5
117
100
AcDbEntity
  8
0
  6
CONTINUOUS
 62
    7
370
   25
100
AcDbCircle
 10
42.3623
 20
37.27480000000005
 40
2.53999999999999
  0
CIRCLE
  5
118
100
AcDbEntity
  8
0
  6
CONTINUOUS
 62
    7
370
   25
100
AcDbCircle
 10
42.3623
 20
262.7252
 40
2.53999999999999
  0
ENDBLK
  5
67
330
65
100
AcDbEntity
  8
0
100
AcDbBlockEnd
  0
BLOCK
  5
69
330
68
100
AcDbEntity
  8
0
100
AcDbBlockBegin
  2
safetyGogglesLensR2-8
 70
    0
 10
0
 20
0
  3
safetyGogglesLensR2-8
  1

  0
LINE
  5
119
100
AcDbEntity
  8
0
  6
CONTINUOUS
 62
    7
370
   25
100
AcDbLine
 10
187.3
 20
289.7
 11
152.375
 21
289.7
  0
ARC
  5
11A
100
AcDbEntity
  8
0
  6
CONTINUOUS
 62
    7
370
   25
100
AcDbCircle
 10
359.69242843772
 20
142.9502679196601
 40
254
100
AcDbArc
 50
144.707214758
 51
165.0631154697
  0
LINE
  5
11B
100
AcDbEntity
  8
0
  6
CONTINUOUS
 62
    7
370
   25
100
AcDbLine
 10
114.275
 20
208.42
 11
114.275
 21
91.58000000000006
  0
ARC
  5
11C
100
AcDbEntity
  8
0
  6
CONTINUOUS
 62
    7
370
   25
100
AcDbCircle
 10
359.69242843772
 20
157.0497320803399
 40
254
100
AcDbArc
 50
194.9368845303
 51
215.292785242
  0
LINE
  5
11D
100
AcDbEntity
  8
0
  6
CONTINUOUS
 62
    7
370
   25
100
AcDbLine
 10
152.375
 20
10.30000000000003
 11
187.3
 21
10.30000000000003
  0
ARC
  5
11E
100
AcDbEntity
  8
0
  6
CONTINUOUS
 62
    7
370
   25
100
AcDbCircle
 10
-61.88799747264
 20
136.67128596406
 40
279.4
100
AcDbArc
 50
333.1089611431
 51
353.6103588475
  0
ARC
  5
11F
100
AcDbEntity
  8
0
  6
CONTINUOUS
 62
    7
370
   25
100
AcDbCircle
 10
200
 20
107.34378342538
 40
15.87499999999995
100
AcDbArc
 50
353.6103588475
 51
45
  0
LINE
  5
120
100
AcDbEntity
  8
0
  6
CONTINUOUS
 62
    7
370
   25
100
AcDbLine
 10
211.22532015028
 20
118.56910357566
 11
189.89721186424
 21
139.8972118642401
  0
ARC
  5
121
100
AcDbEntity
  8
0
  6
CONTINUOUS
 62
    7
370
   25
100
AcDbCircle
 10
200
 20
150
 40
14.28749999999999
100
AcDbArc
 50
135
 51
225
  0
LINE
  5
122
100
AcDbEntity
  8
0
  6
CONTINUOUS
 62
    7
370
   25
100
AcDbLine
 10
189.89721186424
 20
160.10278813576
 11
211.22532015028
 21
181.4308964243401
  0
ARC
  5
123
100
AcDbEntity
  8
0
  6
CONTINUOUS
 62
    7
370
   25
100
AcDbCircle
 10
200
 20
192.65621657462
 40
15.875
100
AcDbArc
 50
315
 51
6.389641152500004
  0
ARC
  5
124
100
AcDbEntity
  8
0
  6
CONTINUOUS
 62
    7
370
   25
100
AcDbCircle
 10
-61.88799747264
 20
163.3287140359401
 40
279.4
100
AcDbArc
 50
6.389641152500004
 51
26.89103885690004
  0
CIRCLE
  5
125
100
AcDbEntity
  8
0
  6
CONTINUOUS
 62
    7
370
   25
100
AcDbCircle
 10
125.3875
 20
186.195
 40
2.540000000000002
  0
CIRCLE
  5
126
100
AcDbEntity
  8
0
  6
CONTINUOUS
 62
    7
370
   25
100
AcDbCircle
 10
125.3875
 20
113.8050000000001
 40
2.540000000000002
  0
CIRCLE
  5
127
100
AcDbEntity
  8
0
  6
CONTINUOUS
 62
    7
370
   25
100
AcDbCircle
 10
152.3623
 20
37.27480000000004
 40
2.53999999999999
  0
CIRCLE
  5
128
100
AcDbEntity
  8
0
  6
CONTINUOUS
 62
    7
370
   25
100
AcDbCircle
 10
152.3623
 20
262.7252
 40
2.53999999999999
  0
ENDBLK
  5
6A
330
68
100
AcDbEntity
  8
0
100
AcDbBlockEnd
  0
BLOCK
  5
6C
330
6B
100
AcDbEntity
  8
0
100
AcDbBlockBegin
  2
safetyGogglesLensR2-9
 70
    0
 10
0
 20
0
  3
safetyGogglesLensR2-9
  1

  0
LINE
  5
129
100
AcDbEntity
  8
0
  6
CONTINUOUS
 62
    7
370
   25
100
AcDbLine
 10
297.3
 20
289.7
 11
262.375
 21
289.7
  0
ARC
  5
12A
100
AcDbEntity
  8
0
  6
CONTINUOUS
 62
    7
370
   25
100
AcDbCircle
 10
469.69242843772
 20
142.9502679196601
 40
254
100
AcDbArc
 50
144.707214758
 51
165.0631154697
  0
LINE
  5
12B
100
AcDbEntity
  8
0
  6
CONTINUOUS
 62
    7
370
   25
100
AcDbLine
 10
224.275
 20
208.42
 11
224.275
 21
91.58000000000006
  0
ARC
  5
12C
100
AcDbEntity
  8
0
  6
CONTINUOUS
 62
    7
370
   25
100
AcDbCircle
 10
469.69242843772
 20
157.0497320803399
 40
254
100
AcDbArc
 50
194.9368845303
 51
215.292785242
  0
LINE
  5
12D
100
AcDbEntity
  8
0
  6
CONTINUOUS
 62
    7
370
   25
100
AcDbLine
 10
262.375
 20
10.30000000000002
 11
297.3
 21
10.30000000000002
  0
ARC
  5
12E
100
AcDbEntity
  8
0
  6
CONTINUOUS
 62
    7
370
   25
100
AcDbCircle
 10
48.11200252736
 20
136.67128596406
 40
279.4
100
AcDbArc
 50
333.1089611431
 51
353.6103588475
  0
ARC
  5
12F
100
AcDbEntity
  8
0
  6
CONTINUOUS
 62
    7
370
   25
100
AcDbCircle
 10
310
 20
107.34378342538
 40
15.87499999999995
100
AcDbArc
 50
353.6103588475
 51
45
  0
LINE
  5
130
100
AcDbEntity
  8
0
  6
CONTINUOUS
 62
    7
370
   25
100
AcDbLine
 10
321.22532015028
 20
118.56910357566
 11
299.89721186424
 21
139.89721186424
  0
ARC
  5
131
100
AcDbEntity
  8
0
  6
CONTINUOUS
 62
    7
370
   25
100
AcDbCircle
 10
310
 20
150
 40
14.28749999999999
100
AcDbArc
 50
135
 51
225
  0
LINE
  5
132
100
AcDbEntity
  8
0
  6
CONTINUOUS
 62
    7
370
   25
100
AcDbLine
 10
299.89721186424
 20
160.10278813576
 11
321.22532015028
 21
181.4308964243401
  0
ARC
  5
133
100
AcDbEntity
  8
0
  6
CONTINUOUS
 62
    7
370
   25
100
AcDbCircle
 10
310
 20
192.65621657462
 40
15.875
100
AcDbArc
 50
315
 51
6.389641152500004
  0
ARC
  5
134
100
AcDbEntity
  8
0
  6
CONTINUOUS
 62
    7
370
   25
100
AcDbCircle
 10
48.11200252736
 20
163.3287140359401
 40
279.4
100
AcDbArc
 50
6.389641152500004
 51
26.89103885690004
  0
CIRCLE
  5
135
100
AcDbEntity
  8
0
  6
CONTINUOUS
 62
    7
370
   25
100
AcDbCircle
 10
235.3875
 20
186.1949999999999
 40
2.540000000000002
  0
CIRCLE
  5
136
100
AcDbEntity
  8
0
  6
CONTINUOUS
 62
    7
370
   25
100
AcDbCircle
 10
235.3875
 20
113.8050000000001
 40
2.540000000000002
  0
CIRCLE
  5
137
100
AcDbEntity
  8
0
  6
CONTINUOUS
 62
    7
370
   25
100
AcDbCircle
 10
262.3623
 20
37.27480000000004
 40
2.53999999999999
  0
CIRCLE
  5
138
100
AcDbEntity
  8
0
  6
CONTINUOUS
 62
    7
370
   25
100
AcDbCircle
 10
262.3623
 20
262.7252
 40
2.53999999999999
  0
ENDBLK
  5
6D
330
6B
100
AcDbEntity
  8
0
100
AcDbBlockEnd
  0
BLOCK
  5
6F
330
6E
100
AcDbEntity
  8
0
100
AcDbBlockBegin
  2
safetyGogglesLensR2-10
 70
    0
 10
0
 20
0
  3
safetyGogglesLensR2-10
  1

  0
LINE
  5
139
100
AcDbEntity
  8
0
  6
CONTINUOUS
 62
    7
370
   25
100
AcDbLine
 10
407.3
 20
289.7
 11
372.375
 21
289.7
  0
ARC
  5
13A
100
AcDbEntity
  8
0
  6
CONTINUOUS
 62
    7
370
   25
100
AcDbCircle
 10
579.69242843772
 20
142.9502679196601
 40
254
100
AcDbArc
 50
144.707214758
 51
165.0631154697
  0
LINE
  5
13B
100
AcDbEntity
  8
0
  6
CONTINUOUS
 62
    7
370
   25
100
AcDbLine
 10
334.275
 20
208.42
 11
334.275
 21
91.58000000000004
  0
ARC
  5
13C
100
AcDbEntity
  8
0
  6
CONTINUOUS
 62
    7
370
   25
100
AcDbCircle
 10
579.69242843772
 20
157.0497320803399
 40
254
100
AcDbArc
 50
194.9368845303
 51
215.292785242
  0
LINE
  5
13D
100
AcDbEntity
  8
0
  6
CONTINUOUS
 62
    7
370
   25
100
AcDbLine
 10
372.375
 20
10.30000000000001
 11
407.3
 21
10.30000000000001
  0
ARC
  5
13E
100
AcDbEntity
  8
0
  6
CONTINUOUS
 62
    7
370
   25
100
AcDbCircle
 10
158.11200252736
 20
136.67128596406
 40
279.4
100
AcDbArc
 50
333.1089611431
 51
353.6103588475
  0
ARC
  5
13F
100
AcDbEntity
  8
0
  6
CONTINUOUS
 62
    7
370
   25
100
AcDbCircle
 10
420
 20
107.34378342538
 40
15.87499999999995
100
AcDbArc
 50
353.6103588475
 51
45
  0
LINE
  5
140
100
AcDbEntity
  8
0
  6
CONTINUOUS
 62
    7
370
   25
100
AcDbLine
 10
431.22532015028
 20
118.5691035756599
 11
409.89721186424
 21
139.89721186424
  0
ARC
  5
141
100
AcDbEntity
  8
0
  6
CONTINUOUS
 62
    7
370
   25
100
AcDbCircle
 10
420
 20
150
 40
14.28749999999999
100
AcDbArc
 50
135
 51
225
  0
LINE
  5
142
100
AcDbEntity
  8
0
  6
CONTINUOUS
 62
    7
370
   25
100
AcDbLine
 10
409.89721186424
 20
160.10278813576
 11
431.22532015028
 21
181.4308964243401
  0
ARC
  5
143
100
AcDbEntity
  8
0
  6
CONTINUOUS
 62
    7
370
   25
100
AcDbCircle
 10
420
 20
192.65621657462
 40
15.875
100
AcDbArc
 50
315
 51
6.389641152500004
  0
ARC
  5
144
100
AcDbEntity
  8
0
  6
CONTINUOUS
 62
    7
370
   25
100
AcDbCircle
 10
158.11200252736
 20
163.3287140359401
 40
279.4
100
AcDbArc
 50
6.389641152500004
 51
26.89103885690004
  0
CIRCLE
  5
145
100
AcDbEntity
  8
0
  6
CONTINUOUS
 62
    7
370
   25
100
AcDbCircle
 10
345.3875
 20
186.1949999999999
 40
2.540000000000002
  0
CIRCLE
  5
146
100
AcDbEntity
  8
0
  6
CONTINUOUS
 62
    7
370
   25
100
AcDbCircle
 10
345.3875
 20
113.8050000000001
 40
2.540000000000002
  0
CIRCLE
  5
147
100
AcDbEntity
  8
0
  6
CONTINUOUS
 62
    7
370
   25
100
AcDbCircle
 10
372.3623
 20
37.27480000000003
 40
2.53999999999999
  0
CIRCLE
  5
148
100
AcDbEntity
  8
0
  6
CONTINUOUS
 62
    7
370
   25
100
AcDbCircle
 10
372.3623
 20
262.7252
 40
2.53999999999999
  0
ENDBLK
  5
70
330
6E
100
AcDbEntity
  8
0
100
AcDbBlockEnd
  0
BLOCK
  5
72
330
71
100
AcDbEntity
  8
0
100
AcDbBlockBegin
  2
safetyGogglesLensR2-11
 70
    0
 10
0
 20
0
  3
safetyGogglesLensR2-11
  1

  0
LINE
  5
149
100
AcDbEntity
  8
0
  6
CONTINUOUS
 62
    7
370
   25
100
AcDbLine
 10
77.30000000000003
 20
289.7
 11
42.37500000000001
 21
289.7
  0
ARC
  5
14A
100
AcDbEntity
  8
0
  6
CONTINUOUS
 62
    7
370
   25
100
AcDbCircle
 10
249.69242843772
 20
142.9502679196601
 40
254
100
AcDbArc
 50
144.707214758
 51
165.0631154697
  0
LINE
  5
14B
100
AcDbEntity
  8
0
  6
CONTINUOUS
 62
    7
370
   25
100
AcDbLine
 10
4.27499999999999
 20
208.42
 11
4.274999999999983
 21
91.58000000000007
  0
ARC
  5
14C
100
AcDbEntity
  8
0
  6
CONTINUOUS
 62
    7
370
   25
100
AcDbCircle
 10
249.69242843772
 20
157.0497320803399
 40
254
100
AcDbArc
 50
194.9368845303
 51
215.292785242
  0
LINE
  5
14D
100
AcDbEntity
  8
0
  6
CONTINUOUS
 62
    7
370
   25
100
AcDbLine
 10
42.375
 20
10.30000000000004
 11
77.30000000000001
 21
10.30000000000003
  0
ARC
  5
14E
100
AcDbEntity
  8
0
  6
CONTINUOUS
 62
    7
370
   25
100
AcDbCircle
 10
-171.88799747264
 20
136.67128596406
 40
279.4
100
AcDbArc
 50
333.1089611431
 51
353.6103588475
  0
ARC
  5
14F
100
AcDbEntity
  8
0
  6
CONTINUOUS
 62
    7
370
   25
100
AcDbCircle
 10
90
 20
107.3437834253801
 40
15.87499999999995
100
AcDbArc
 50
353.6103588475
 51
45
  0
LINE
  5
150
100
AcDbEntity
  8
0
  6
CONTINUOUS
 62
    7
370
   25
100
AcDbLine
 10
101.22532015028
 20
118.56910357566
 11
79.89721186423999
 21
139.8972118642401
  0
ARC
  5
151
100
AcDbEntity
  8
0
  6
CONTINUOUS
 62
    7
370
   25
100
AcDbCircle
 10
90
 20
150
 40
14.28749999999999
100
AcDbArc
 50
135
 51
225
  0
LINE
  5
152
100
AcDbEntity
  8
0
  6
CONTINUOUS
 62
    7
370
   25
100
AcDbLine
 10
79.89721186423999
 20
160.10278813576
 11
101.22532015028
 21
181.4308964243401
  0
ARC
  5
153
100
AcDbEntity
  8
0
  6
CONTINUOUS
 62
    7
370
   25
100
AcDbCircle
 10
90
 20
192.65621657462
 40
15.875
100
AcDbArc
 50
315
 51
6.389641152500004
  0
ARC
  5
154
100
AcDbEntity
  8
0
  6
CONTINUOUS
 62
    7
370
   25
100
AcDbCircle
 10
-171.88799747264
 20
163.3287140359401
 40
279.4
100
AcDbArc
 50
6.389641152500004
 51
26.89103885690004
  0
CIRCLE
  5
155
100
AcDbEntity
  8
0
  6
CONTINUOUS
 62
    7
370
   25
100
AcDbCircle
 10
15.38749999999999
 20
186.195
 40
2.540000000000002
  0
CIRCLE
  5
156
100
AcDbEntity
  8
0
  6
CONTINUOUS
 62
    7
370
   25
100
AcDbCircle
 10
15.38749999999999
 20
113.8050000000001
 40
2.540000000000002
  0
CIRCLE
  5
157
100
AcDbEntity
  8
0
  6
CONTINUOUS
 62
    7
370
   25
100
AcDbCircle
 10
42.3623
 20
37.27480000000005
 40
2.53999999999999
  0
CIRCLE
  5
158
100
AcDbEntity
  8
0
  6
CONTINUOUS
 62
    7
370
   25
100
AcDbCircle
 10
42.3623
 20
262.7252
 40
2.53999999999999
  0
ENDBLK
  5
73
330
71
100
AcDbEntity
  8
0
100
AcDbBlockEnd
  0
BLOCK
  5
75
330
74
100
AcDbEntity
  8
0
100
AcDbBlockBegin
  2
safetyGogglesLensR2-12
 70
    0
 10
0
 20
0
  3
safetyGogglesLensR2-12
  1

  0
LINE
  5
159
100
AcDbEntity
  8
0
  6
CONTINUOUS
 62
    7
370
   25
100
AcDbLine
 10
187.3
 20
289.7
 11
152.375
 21
289.7
  0
ARC
  5
15A
100
AcDbEntity
  8
0
  6
CONTINUOUS
 62
    7
370
   25
100
AcDbCircle
 10
359.69242843772
 20
142.9502679196601
 40
254
100
AcDbArc
 50
144.707214758
 51
165.0631154697
  0
LINE
  5
15B
100
AcDbEntity
  8
0
  6
CONTINUOUS
 62
    7
370
   25
100
AcDbLine
 10
114.275
 20
208.42
 11
114.275
 21
91.58000000000006
  0
ARC
  5
15C
100
AcDbEntity
  8
0
  6
CONTINUOUS
 62
    7
370
   25
100
AcDbCircle
 10
359.69242843772
 20
157.0497320803399
 40
254
100
AcDbArc
 50
194.9368845303
 51
215.292785242
  0
LINE
  5
15D
100
AcDbEntity
  8
0
  6
CONTINUOUS
 62
    7
370
   25
100
AcDbLine
 10
152.375
 20
10.30000000000003
 11
187.3
 21
10.30000000000003
  0
ARC
  5
15E
100
AcDbEntity
  8
0
  6
CONTINUOUS
 62
    7
370
   25
100
AcDbCircle
 10
-61.88799747264
 20
136.67128596406
 40
279.4
100
AcDbArc
 50
333.1089611431
 51
353.6103588475
  0
ARC
  5
15F
100
AcDbEntity
  8
0
  6
CONTINUOUS
 62
    7
370
   25
100
AcDbCircle
 10
200
 20
107.34378342538
 40
15.87499999999995
100
AcDbArc
 50
353.6103588475
 51
45
  0
LINE
  5
160
100
AcDbEntity
  8
0
  6
CONTINUOUS
 62
    7
370
   25
100
AcDbLine
 10
211.22532015028
 20
118.56910357566
 11
189.89721186424
 21
139.8972118642401
  0
ARC
  5
161
100
AcDbEntity
  8
0
  6
CONTINUOUS
 62
    7
370
   25
100
AcDbCircle
 10
200
 20
150
 40
14.28749999999999
100
AcDbArc
 50
135
 51
225
  0
LINE
  5
162
100
AcDbEntity
  8
0
  6
CONTINUOUS
 62
    7
370
   25
100
AcDbLine
 10
189.89721186424
 20
160.10278813576
 11
211.22532015028
 21
181.4308964243401
  0
ARC
  5
163
100
AcDbEntity
  8
0
  6
CONTINUOUS
 62
    7
370
   25
100
AcDbCircle
 10
200
 20
192.65621657462
 40
15.875
100
AcDbArc
 50
315
 51
6.389641152500004
  0
ARC
  5
164
100
AcDbEntity
  8
0
  6
CONTINUOUS
 62
    7
370
   25
100
AcDbCircle
 10
-61.88799747264
 20
163.3287140359401
 40
279.4
100
AcDbArc
 50
6.389641152500004
 51
26.89103885690004
  0
CIRCLE
  5
165
100
AcDbEntity
  8
0
  6
CONTINUOUS
 62
    7
370
   25
100
AcDbCircle
 10
125.3875
 20
186.195
 40
2.540000000000002
  0
CIRCLE
  5
166
100
AcDbEntity
  8
0
  6
CONTINUOUS
 62
    7
370
   25
100
AcDbCircle
 10
125.3875
 20
113.8050000000001
 40
2.540000000000002
  0
CIRCLE
  5
167
100
AcDbEntity
  8
0
  6
CONTINUOUS
 62
    7
370
   25
100
AcDbCircle
 10
152.3623
 20
37.27480000000004
 40
2.53999999999999
  0
CIRCLE
  5
168
100
AcDbEntity
  8
0
  6
CONTINUOUS
 62
    7
370
   25
100
AcDbCircle
 10
152.3623
 20
262.7252
 40
2.53999999999999
  0
ENDBLK
  5
76
330
74
100
AcDbEntity
  8
0
100
AcDbBlockEnd
  0
BLOCK
  5
78
330
77
100
AcDbEntity
  8
0
100
AcDbBlockBegin
  2
safetyGogglesLensR2-13
 70
    0
 10
0
 20
0
  3
safetyGogglesLensR2-13
  1

  0
LINE
  5
169
100
AcDbEntity
  8
0
  6
CONTINUOUS
 62
    7
370
   25
100
AcDbLine
 10
297.3
 20
289.7
 11
262.375
 21
289.7
  0
ARC
  5
16A
100
AcDbEntity
  8
0
  6
CONTINUOUS
 62
    7
370
   25
100
AcDbCircle
 10
469.69242843772
 20
142.9502679196601
 40
254
100
AcDbArc
 50
144.707214758
 51
165.0631154697
  0
LINE
  5
16B
100
AcDbEntity
  8
0
  6
CONTINUOUS
 62
    7
370
   25
100
AcDbLine
 10
224.275
 20
208.42
 11
224.275
 21
91.58000000000006
  0
ARC
  5
16C
100
AcDbEntity
  8
0
  6
CONTINUOUS
 62
    7
370
   25
100
AcDbCircle
 10
469.69242843772
 20
157.0497320803399
 40
254
100
AcDbArc
 50
194.9368845303
 51
215.292785242
  0
LINE
  5
16D
100
AcDbEntity
  8
0
  6
CONTINUOUS
 62
    7
370
   25
100
AcDbLine
 10
262.375
 20
10.30000000000002
 11
297.3
 21
10.30000000000002
  0
ARC
  5
16E
100
AcDbEntity
  8
0
  6
CONTINUOUS
 62
    7
370
   25
100
AcDbCircle
 10
48.11200252736
 20
136.67128596406
 40
279.4
100
AcDbArc
 50
333.1089611431
 51
353.6103588475
  0
ARC
  5
16F
100
AcDbEntity
  8
0
  6
CONTINUOUS
 62
    7
370
   25
100
AcDbCircle
 10
310
 20
107.34378342538
 40
15.87499999999995
100
AcDbArc
 50
353.6103588475
 51
45
  0
LINE
  5
170
100
AcDbEntity
  8
0
  6
CONTINUOUS
 62
    7
370
   25
100
AcDbLine
 10
321.22532015028
 20
118.56910357566
 11
299.89721186424
 21
139.89721186424
  0
ARC
  5
171
100
AcDbEntity
  8
0
  6
CONTINUOUS
 62
    7
370
   25
100
AcDbCircle
 10
310
 20
150
 40
14.28749999999999
100
AcDbArc
 50
135
 51
225
  0
LINE
  5
172
100
AcDbEntity
  8
0
  6
CONTINUOUS
 62
    7
370
   25
100
AcDbLine
 10
299.89721186424
 20
160.10278813576
 11
321.22532015028
 21
181.4308964243401
  0
ARC
  5
173
100
AcDbEntity
  8
0
  6
CONTINUOUS
 62
    7
370
   25
100
AcDbCircle
 10
310
 20
192.65621657462
 40
15.875
100
AcDbArc
 50
315
 51
6.389641152500004
  0
ARC
  5
174
100
AcDbEntity
  8
0
  6
CONTINUOUS
 62
    7
370
   25
100
AcDbCircle
 10
48.11200252736
 20
163.3287140359401
 40
279.4
100
AcDbArc
 50
6.389641152500004
 51
26.89103885690004
  0
CIRCLE
  5
175
100
AcDbEntity
  8
0
  6
CONTINUOUS
 62
    7
370
   25
100
AcDbCircle
 10
235.3875
 20
186.1949999999999
 40
2.540000000000002
  0
CIRCLE
  5
176
100
AcDbEntity
  8
0
  6
CONTINUOUS
 62
    7
370
   25
100
AcDbCircle
 10
235.3875
 20
113.8050000000001
 40
2.540000000000002
  0
CIRCLE
  5
177
100
AcDbEntity
  8
0
  6
CONTINUOUS
 62
    7
370
   25
100
AcDbCircle
 10
262.3623
 20
37.27480000000004
 40
2.53999999999999
  0
CIRCLE
  5
178
100
AcDbEntity
  8
0
  6
CONTINUOUS
 62
    7
370
   25
100
AcDbCircle
 10
262.3623
 20
262.7252
 40
2.53999999999999
  0
ENDBLK
  5
79
330
77
100
AcDbEntity
  8
0
100
AcDbBlockEnd
  0
BLOCK
  5
7B
330
7A
100
AcDbEntity
  8
0
100
AcDbBlockBegin
  2
safetyGogglesLensR2-14
 70
    0
 10
0
 20
0
  3
safetyGogglesLensR2-14
  1

  0
LINE
  5
179
100
AcDbEntity
  8
0
  6
CONTINUOUS
 62
    7
370
   25
100
AcDbLine
 10
407.3
 20
289.7
 11
372.375
 21
289.7
  0
ARC
  5
17A
100
AcDbEntity
  8
0
  6
CONTINUOUS
 62
    7
370
   25
100
AcDbCircle
 10
579.69242843772
 20
142.9502679196601
 40
254
100
AcDbArc
 50
144.707214758
 51
165.0631154697
  0
LINE
  5
17B
100
AcDbEntity
  8
0
  6
CONTINUOUS
 62
    7
370
   25
100
AcDbLine
 10
334.275
 20
208.42
 11
334.275
 21
91.58000000000004
  0
ARC
  5
17C
100
AcDbEntity
  8
0
  6
CONTINUOUS
 62
    7
370
   25
100
AcDbCircle
 10
579.69242843772
 20
157.0497320803399
 40
254
100
AcDbArc
 50
194.9368845303
 51
215.292785242
  0
LINE
  5
17D
100
AcDbEntity
  8
0
  6
CONTINUOUS
 62
    7
370
   25
100
AcDbLine
 10
372.375
 20
10.30000000000001
 11
407.3
 21
10.30000000000001
  0
ARC
  5
17E
100
AcDbEntity
  8
0
  6
CONTINUOUS
 62
    7
370
   25
100
AcDbCircle
 10
158.11200252736
 20
136.67128596406
 40
279.4
100
AcDbArc
 50
333.1089611431
 51
353.6103588475
  0
ARC
  5
17F
100
AcDbEntity
  8
0
  6
CONTINUOUS
 62
    7
370
   25
100
AcDbCircle
 10
420
 20
107.34378342538
 40
15.87499999999995
100
AcDbArc
 50
353.6103588475
 51
45
  0
LINE
  5
180
100
AcDbEntity
  8
0
  6
CONTINUOUS
 62
    7
370
   25
100
AcDbLine
 10
431.22532015028
 20
118.5691035756599
 11
409.89721186424
 21
139.89721186424
  0
ARC
  5
181
100
AcDbEntity
  8
0
  6
CONTINUOUS
 62
    7
370
   25
100
AcDbCircle
 10
420
 20
150
 40
14.28749999999999
100
AcDbArc
 50
135
 51
225
  0
LINE
  5
182
100
AcDbEntity
  8
0
  6
CONTINUOUS
 62
    7
370
   25
100
AcDbLine
 10
409.89721186424
 20
160.10278813576
 11
431.22532015028
 21
181.4308964243401
  0
ARC
  5
183
100
AcDbEntity
  8
0
  6
CONTINUOUS
 62
    7
370
   25
100
AcDbCircle
 10
420
 20
192.65621657462
 40
15.875
100
AcDbArc
 50
315
 51
6.389641152500004
  0
ARC
  5
184
100
AcDbEntity
  8
0
  6
CONTINUOUS
 62
    7
370
   25
100
AcDbCircle
 10
158.11200252736
 20
163.3287140359401
 40
279.4
100
AcDbArc
 50
6.389641152500004
 51
26.89103885690004
  0
CIRCLE
  5
185
100
AcDbEntity
  8
0
  6
CONTINUOUS
 62
    7
370
   25
100
AcDbCircle
 10
345.3875
 20
186.1949999999999
 40
2.540000000000002
  0
CIRCLE
  5
186
100
AcDbEntity
  8
0
  6
CONTINUOUS
 62
    7
370
   25
100
AcDbCircle
 10
345.3875
 20
113.8050000000001
 40
2.540000000000002
  0
CIRCLE
  5
187
100
AcDbEntity
  8
0
  6
CONTINUOUS
 62
    7
370
   25
100
AcDbCircle
 10
372.3623
 20
37.27480000000003
 40
2.53999999999999
  0
CIRCLE
  5
188
100
AcDbEntity
  8
0
  6
CONTINUOUS
 62
    7
370
   25
100
AcDbCircle
 10
372.3623
 20
262.7252
 40
2.53999999999999
  0
ENDBLK
  5
7C
330
7A
100
AcDbEntity
  8
0
100
AcDbBlockEnd
  0
BLOCK
  5
7E
330
7D
100
AcDbEntity
  8
0
100
AcDbBlockBegin
  2
safetyGogglesLensR2-15
 70
    0
 10
0
 20
0
  3
safetyGogglesLensR2-15
  1

  0
LINE
  5
189
100
AcDbEntity
  8
0
  6
CONTINUOUS
 62
    7
370
   25
100
AcDbLine
 10
77.30000000000025
 20
289.7
 11
42.37500000000024
 21
289.7
  0
ARC
  5
18A
100
AcDbEntity
  8
0
  6
CONTINUOUS
 62
    7
370
   25
100
AcDbCircle
 10
249.6924284377202
 20
142.9502679196601
 40
254
100
AcDbArc
 50
144.707214758
 51
165.0631154697
  0
LINE
  5
18B
100
AcDbEntity
  8
0
  6
CONTINUOUS
 62
    7
370
   25
100
AcDbLine
 10
4.275000000000217
 20
208.42
 11
4.27500000000021
 21
91.58000000000007
  0
ARC
  5
18C
100
AcDbEntity
  8
0
  6
CONTINUOUS
 62
    7
370
   25
100
AcDbCircle
 10
249.6924284377202
 20
157.0497320803399
 40
254
100
AcDbArc
 50
194.9368845303
 51
215.292785242
  0
LINE
  5
18D
100
AcDbEntity
  8
0
  6
CONTINUOUS
 62
    7
370
   25
100
AcDbLine
 10
42.37500000000023
 20
10.30000000000004
 11
77.30000000000024
 21
10.30000000000003
  0
ARC
  5
18E
100
AcDbEntity
  8
0
  6
CONTINUOUS
 62
    7
370
   25
100
AcDbCircle
 10
-171.8879974726398
 20
136.67128596406
 40
279.4
100
AcDbArc
 50
333.1089611431
 51
353.6103588475
  0
ARC
  5
18F
100
AcDbEntity
  8
0
  6
CONTINUOUS
 62
    7
370
   25
100
AcDbCircle
 10
90.00000000000023
 20
107.3437834253801
 40
15.87499999999995
100
AcDbArc
 50
353.6103588475
 51
45
  0
LINE
  5
190
100
AcDbEntity
  8
0
  6
CONTINUOUS
 62
    7
370
   25
100
AcDbLine
 10
101.2253201502803
 20
118.56910357566
 11
79.89721186424022
 21
139.8972118642401
  0
ARC
  5
191
100
AcDbEntity
  8
0
  6
CONTINUOUS
 62
    7
370
   25
100
AcDbCircle
 10
90.00000000000023
 20
150
 40
14.28749999999999
100
AcDbArc
 50
135
 51
225
  0
LINE
  5
192
100
AcDbEntity
  8
0
  6
CONTINUOUS
 62
    7
370
   25
100
AcDbLine
 10
79.89721186424022
 20
160.10278813576
 11
101.2253201502803
 21
181.4308964243401
  0
ARC
  5
193
100
AcDbEntity
  8
0
  6
CONTINUOUS
 62
    7
370
   25
100
AcDbCircle
 10
90.00000000000023
 20
192.65621657462
 40
15.875
100
AcDbArc
 50
315
 51
6.389641152500004
  0
ARC
  5
194
100
AcDbEntity
  8
0
  6
CONTINUOUS
 62
    7
370
   25
100
AcDbCircle
 10
-171.8879974726398
 20
163.3287140359401
 40
279.4
100
AcDbArc
 50
6.389641152500004
 51
26.89103885690004
  0
CIRCLE
  5
195
100
AcDbEntity
  8
0
  6
CONTINUOUS
 62
    7
370
   25
100
AcDbCircle
 10
15.38750000000022
 20
186.195
 40
2.540000000000002
  0
CIRCLE
  5
196
100
AcDbEntity
  8
0
  6
CONTINUOUS
 62
    7
370
   25
100
AcDbCircle
 10
15.38750000000022
 20
113.8050000000001
 40
2.540000000000002
  0
CIRCLE
  5
197
100
AcDbEntity
  8
0
  6
CONTINUOUS
 62
    7
370
   25
100
AcDbCircle
 10
42.36230000000023
 20
37.27480000000005
 40
2.53999999999999
  0
CIRCLE
  5
198
100
AcDbEntity
  8
0
  6
CONTINUOUS
 62
    7
370
   25
100
AcDbCircle
 10
42.36230000000023
 20
262.7252
 40
2.53999999999999
  0
ENDBLK
  5
7F
330
7D
100
AcDbEntity
  8
0
100
AcDbBlockEnd
  0
BLOCK
  5
81
330
80
100
AcDbEntity
  8
0
100
AcDbBlockBegin
  2
safetyGogglesLensR2-16
 70
    0
 10
0
 20
0
  3
safetyGogglesLensR2-16
  1

  0
LINE
  5
199
100
AcDbEntity
  8
0
  6
CONTINUOUS
 62
    7
370
   25
100
AcDbLine
 10
187.3000000000003
 20
289.7
 11
152.3750000000003
 21
289.7
  0
ARC
  5
19A
100
AcDbEntity
  8
0
  6
CONTINUOUS
 62
    7
370
   25
100
AcDbCircle
 10
359.6924284377203
 20
142.9502679196601
 40
254
100
AcDbArc
 50
144.707214758
 51
165.0631154697
  0
LINE
  5
19B
100
AcDbEntity
  8
0
  6
CONTINUOUS
 62
    7
370
   25
100
AcDbLine
 10
114.2750000000002
 20
208.42
 11
114.2750000000002
 21
91.58000000000006
  0
ARC
  5
19C
100
AcDbEntity
  8
0
  6
CONTINUOUS
 62
    7
370
   25
100
AcDbCircle
 10
359.6924284377203
 20
157.0497320803399
 40
254
100
AcDbArc
 50
194.9368845303
 51
215.292785242
  0
LINE
  5
19D
100
AcDbEntity
  8
0
  6
CONTINUOUS
 62
    7
370
   25
100
AcDbLine
 10
152.3750000000002
 20
10.30000000000003
 11
187.3000000000002
 21
10.30000000000003
  0
ARC
  5
19E
100
AcDbEntity
  8
0
  6
CONTINUOUS
 62
    7
370
   25
100
AcDbCircle
 10
-61.88799747263977
 20
136.67128596406
 40
279.4
100
AcDbArc
 50
333.1089611431
 51
353.6103588475
  0
ARC
  5
19F
100
AcDbEntity
  8
0
  6
CONTINUOUS
 62
    7
370
   25
100
AcDbCircle
 10
200.0000000000002
 20
107.34378342538
 40
15.87499999999995
100
AcDbArc
 50
353.6103588475
 51
45
  0
LINE
  5
1A0
100
AcDbEntity
  8
0
  6
CONTINUOUS
 62
    7
370
   25
100
AcDbLine
 10
211.2253201502802
 20
118.56910357566
 11
189.8972118642402
 21
139.8972118642401
  0
ARC
  5
1A1
100
AcDbEntity
  8
0
  6
CONTINUOUS
 62
    7
370
   25
100
AcDbCircle
 10
200.0000000000002
 20
150
 40
14.28749999999999
100
AcDbArc
 50
135
 51
225
  0
LINE
  5
1A2
100
AcDbEntity
  8
0
  6
CONTINUOUS
 62
    7
370
   25
100
AcDbLine
 10
189.8972118642402
 20
160.10278813576
 11
211.2253201502802
 21
181.4308964243401
  0
ARC
  5
1A3
100
AcDbEntity
  8
0
  6
CONTINUOUS
 62
    7
370
   25
100
AcDbCircle
 10
200.0000000000002
 20
192.65621657462
 40
15.875
100
AcDbArc
 50
315
 51
6.389641152500004
  0
ARC
  5
1A4
100
AcDbEntity
  8
0
  6
CONTINUOUS
 62
    7
370
   25
100
AcDbCircle
 10
-61.88799747263977
 20
163.3287140359401
 40
279.4
100
AcDbArc
 50
6.389641152500004
 51
26.89103885690004
  0
CIRCLE
  5
1A5
100
AcDbEntity
  8
0
  6
CONTINUOUS
 62
    7
370
   25
100
AcDbCircle
 10
125.3875000000002
 20
186.195
 40
2.540000000000002
  0
CIRCLE
  5
1A6
100
AcDbEntity
  8
0
  6
CONTINUOUS
 62
    7
370
   25
100
AcDbCircle
 10
125.3875000000002
 20
113.8050000000001
 40
2.540000000000002
  0
CIRCLE
  5
1A7
100
AcDbEntity
  8
0
  6
CONTINUOUS
 62
    7
370
   25
100
AcDbCircle
 10
152.3623000000002
 20
37.27480000000004
 40
2.53999999999999
  0
CIRCLE
  5
1A8
100
AcDbEntity
  8
0
  6
CONTINUOUS
 62
    7
370
   25
100
AcDbCircle
 10
152.3623000000002
 20
262.7252
 40
2.53999999999999
  0
ENDBLK
  5
82
330
80
100
AcDbEntity
  8
0
100
AcDbBlockEnd
  0
BLOCK
  5
84
330
83
100
AcDbEntity
  8
0
100
AcDbBlockBegin
  2
safetyGogglesLensR2-17
 70
    0
 10
0
 20
0
  3
safetyGogglesLensR2-17
  1

  0
LINE
  5
1A9
100
AcDbEntity
  8
0
  6
CONTINUOUS
 62
    7
370
   25
100
AcDbLine
 10
297.3000000000002
 20
289.7
 11
262.3750000000002
 21
289.7
  0
ARC
  5
1AA
100
AcDbEntity
  8
0
  6
CONTINUOUS
 62
    7
370
   25
100
AcDbCircle
 10
469.6924284377203
 20
142.9502679196601
 40
254
100
AcDbArc
 50
144.707214758
 51
165.0631154697
  0
LINE
  5
1AB
100
AcDbEntity
  8
0
  6
CONTINUOUS
 62
    7
370
   25
100
AcDbLine
 10
224.2750000000002
 20
208.42
 11
224.2750000000002
 21
91.58000000000006
  0
ARC
  5
1AC
100
AcDbEntity
  8
0
  6
CONTINUOUS
 62
    7
370
   25
100
AcDbCircle
 10
469.6924284377203
 20
157.0497320803399
 40
254
100
AcDbArc
 50
194.9368845303
 51
215.292785242
  0
LINE
  5
1AD
100
AcDbEntity
  8
0
  6
CONTINUOUS
 62
    7
370
   25
100
AcDbLine
 10
262.3750000000002
 20
10.30000000000002
 11
297.3000000000002
 21
10.30000000000002
  0
ARC
  5
1AE
100
AcDbEntity
  8
0
  6
CONTINUOUS
 62
    7
370
   25
100
AcDbCircle
 10
48.11200252736023
 20
136.67128596406
 40
279.4
100
AcDbArc
 50
333.1089611431
 51
353.6103588475
  0
ARC
  5
1AF
100
AcDbEntity
  8
0
  6
CONTINUOUS
 62
    7
370
   25
100
AcDbCircle
 10
310.0000000000002
 20
107.34378342538
 40
15.87499999999995
100
AcDbArc
 50
353.6103588475
 51
45
  0
LINE
  5
1B0
100
AcDbEntity
  8
0
  6
CONTINUOUS
 62
    7
370
   25
100
AcDbLine
 10
321.2253201502803
 20
118.56910357566
 11
299.8972118642403
 21
139.89721186424
  0
ARC
  5
1B1
100
AcDbEntity
  8
0
  6
CONTINUOUS
 62
    7
370
   25
100
AcDbCircle
 10
310.0000000000002
 20
150
 40
14.28749999999999
100
AcDbArc
 50
135
 51
225
  0
LINE
  5
1B2
100
AcDbEntity
  8
0
  6
CONTINUOUS
 62
    7
370
   25
100
AcDbLine
 10
299.8972118642403
 20
160.10278813576
 11
321.2253201502803
 21
181.4308964243401
  0
ARC
  5
1B3
100
AcDbEntity
  8
0
  6
CONTINUOUS
 62
    7
370
   25
100
AcDbCircle
 10
310.0000000000002
 20
192.65621657462
 40
15.875
100
AcDbArc
 50
315
 51
6.389641152500004
  0
ARC
  5
1B4
100
AcDbEntity
  8
0
  6
CONTINUOUS
 62
    7
370
   25
100
AcDbCircle
 10
48.11200252736023
 20
163.3287140359401
 40
279.4
100
AcDbArc
 50
6.389641152500004
 51
26.89103885690004
  0
CIRCLE
  5
1B5
100
AcDbEntity
  8
0
  6
CONTINUOUS
 62
    7
370
   25
100
AcDbCircle
 10
235.3875000000002
 20
186.1949999999999
 40
2.540000000000002
  0
CIRCLE
  5
1B6
100
AcDbEntity
  8
0
  6
CONTINUOUS
 62
    7
370
   25
100
AcDbCircle
 10
235.3875000000002
 20
113.8050000000001
 40
2.540000000000002
  0
CIRCLE
  5
1B7
100
AcDbEntity
  8
0
  6
CONTINUOUS
 62
    7
370
   25
100
AcDbCircle
 10
262.3623000000002
 20
37.27480000000004
 40
2.53999999999999
  0
CIRCLE
  5
1B8
100
AcDbEntity
  8
0
  6
CONTINUOUS
 62
    7
370
   25
100
AcDbCircle
 10
262.3623000000002
 20
262.7252
 40
2.53999999999999
  0
ENDBLK
  5
85
330
83
100
AcDbEntity
  8
0
100
AcDbBlockEnd
  0
BLOCK
  5
87
330
86
100
AcDbEntity
  8
0
100
AcDbBlockBegin
  2
safetyGogglesLensR2-18
 70
    0
 10
0
 20
0
  3
safetyGogglesLensR2-18
  1

  0
LINE
  5
1B9
100
AcDbEntity
  8
0
  6
CONTINUOUS
 62
    7
370
   25
100
AcDbLine
 10
407.3000000000002
 20
289.7
 11
372.3750000000002
 21
289.7
  0
ARC
  5
1BA
100
AcDbEntity
  8
0
  6
CONTINUOUS
 62
    7
370
   25
100
AcDbCircle
 10
579.6924284377202
 20
142.9502679196601
 40
254
100
AcDbArc
 50
144.707214758
 51
165.0631154697
  0
LINE
  5
1BB
100
AcDbEntity
  8
0
  6
CONTINUOUS
 62
    7
370
   25
100
AcDbLine
 10
334.2750000000003
 20
208.42
 11
334.2750000000003
 21
91.58000000000004
  0
ARC
  5
1BC
100
AcDbEntity
  8
0
  6
CONTINUOUS
 62
    7
370
   25
100
AcDbCircle
 10
579.6924284377202
 20
157.0497320803399
 40
254
100
AcDbArc
 50
194.9368845303
 51
215.292785242
  0
LINE
  5
1BD
100
AcDbEntity
  8
0
  6
CONTINUOUS
 62
    7
370
   25
100
AcDbLine
 10
372.3750000000002
 20
10.30000000000001
 11
407.3000000000002
 21
10.30000000000001
  0
ARC
  5
1BE
100
AcDbEntity
  8
0
  6
CONTINUOUS
 62
    7
370
   25
100
AcDbCircle
 10
158.1120025273602
 20
136.67128596406
 40
279.4
100
AcDbArc
 50
333.1089611431
 51
353.6103588475
  0
ARC
  5
1BF
100
AcDbEntity
  8
0
  6
CONTINUOUS
 62
    7
370
   25
100
AcDbCircle
 10
420.0000000000002
 20
107.34378342538
 40
15.87499999999995
100
AcDbArc
 50
353.6103588475
 51
45
  0
LINE
  5
1C0
100
AcDbEntity
  8
0
  6
CONTINUOUS
 62
    7
370
   25
100
AcDbLine
 10
431.2253201502803
 20
118.5691035756599
 11
409.8972118642403
 21
139.89721186424
  0
ARC
  5
1C1
100
AcDbEntity
  8
0
  6
CONTINUOUS
 62
    7
370
   25
100
AcDbCircle
 10
420.0000000000002
 20
150
 40
14.28749999999999
100
AcDbArc
 50
135
 51
225
  0
LINE
  5
1C2
100
AcDbEntity
  8
0
  6
CONTINUOUS
 62
    7
370
   25
100
AcDbLine
 10
409.8972118642403
 20
160.10278813576
 11
431.2253201502803
 21
181.4308964243401
  0
ARC
  5
1C3
100
AcDbEntity
  8
0
  6
CONTINUOUS
 62
    7
370
   25
100
AcDbCircle
 10
420.0000000000002
 20
192.65621657462
 40
15.875
100
AcDbArc
 50
315
 51
6.389641152500004
  0
ARC
  5
1C4
100
AcDbEntity
  8
0
  6
CONTINUOUS
 62
    7
370
   25
100
AcDbCircle
 10
158.1120025273602
 20
163.3287140359401
 40
279.4
100
AcDbArc
 50
6.389641152500004
 51
26.89103885690004
  0
CIRCLE
  5
1C5
100
AcDbEntity
  8
0
  6
CONTINUOUS
 62
    7
370
   25
100
AcDbCircle
 10
345.3875000000003
 20
186.1949999999999
 40
2.540000000000002
  0
CIRCLE
  5
1C6
100
AcDbEntity
  8
0
  6
CONTINUOUS
 62
    7
370
   25
100
AcDbCircle
 10
345.3875000000002
 20
113.8050000000001
 40
2.540000000000002
  0
CIRCLE
  5
1C7
100
AcDbEntity
  8
0
  6
CONTINUOUS
 62
    7
370
   25
100
AcDbCircle
 10
372.3623000000002
 20
37.27480000000003
 40
2.53999999999999
  0
CIRCLE
  5
1C8
100
AcDbEntity
  8
0
  6
CONTINUOUS
 62
    7
370
   25
100
AcDbCircle
 10
372.3623000000002
 20
262.7252
 40
2.53999999999999
  0
ENDBLK
  5
88
330
86
100
AcDbEntity
  8
0
100
AcDbBlockEnd
  0
ENDSEC
  0
SECTION
  2
ENTITIES
  0
LINE
  5
1C9
100
AcDbEntity
  8
0
  6
CONTINUOUS
 62
    7
370
    0
100
AcDbLine
 10
299.9999999999998
 20
439.9999999999999
 11
-2.273736754432321e-013
 21
439.9999999999999
  0
INSERT
  5
1CA
100
AcDbEntity
  8
0
  6
ByLayer
 62
  256
370
   -1
100
AcDbBlockReference
  2
safetyGogglesLensR2
 10
149.9999999999998
 20
350
 30
0
 41
1
 42
1
 43
0
 50
0
 70
    1
 71
    1
 44
0
 45
0
  0
INSERT
  5
1CB
100
AcDbEntity
  8
0
  6
ByLayer
 62
  256
370
   -1
100
AcDbBlockReference
  2
safetyGogglesLensR2-0
 10
149.9999999999998
 20
240
 30
0
 41
1
 42
1
 43
0
 50
0
 70
    1
 71
    1
 44
0
 45
0
  0
INSERT
  5
1CC
100
AcDbEntity
  8
0
  6
ByLayer
 62
  256
370
   -1
100
AcDbBlockReference
  2
safetyGogglesLensR2-1
 10
149.9999999999998
 20
130
 30
0
 41
1
 42
1
 43
0
 50
0
 70
    1
 71
    1
 44
0
 45
0
  0
INSERT
  5
1CD
100
AcDbEntity
  8
0
  6
ByLayer
 62
  256
370
   -1
100
AcDbBlockReference
  2
safetyGogglesLensR2-2
 10
149.9999999999998
 20
20
 30
0
 41
1
 42
1
 43
0
 50
0
 70
    1
 71
    1
 44
0
 45
0
  0
LINE
  5
1CE
100
AcDbEntity
  8
0
  6
ByLayer
 62
  256
370
   -1
100
AcDbLine
 10
-2.273736754432321e-013
 20
0
 11
299.9999999999998
 21
0
  0
LINE
  5
1CF
100
AcDbEntity
  8
0
  6
CONTINUOUS
 62
    7
370
    0
100
AcDbLine
 10
299.9999999999998
 20
0
 11
299.9999999999998
 21
439.9999999999999
  0
LINE
  5
1D0
100
AcDbEntity
  8
0
  6
CONTINUOUS
 62
    7
370
    0
100
AcDbLine
 10
-2.273736754432321e-013
 20
439.9999999999999
 11
-2.273736754432321e-013
 21
0
  0
ENDSEC
  0
SECTION
  2
OBJECTS
  0
DICTIONARY
  5
C
330
0
100
AcDbDictionary
281
    1
  3
ACAD_GROUP
350
D
  0
DICTIONARY
  5
D
330
C
100
AcDbDictionary
281
    1
  0
ENDSEC
  0
EOF
